<?xml version="1.0" standalone="no"?>
<!DOCTYPE svg PUBLIC "-//W3C//DTD SVG 1.1//EN" "http://www.w3.org/Graphics/SVG/1.1/DTD/svg11.dtd" >
<svg>
<font id="Bones" horiz-adv-x="27" >
<font-face units-per-em="100" ascent="80" descent="-20" />
<glyph unicode=" " horiz-adv-x="27" d="" />
<glyph unicode="!" horiz-adv-x="21.37914" d="M17.93438 66.4914 Q11.79767 53.26993 12.16795 38.56698 Q12.53823 23.86402 15.4144 22.2604 Q17.40936 21.92507 9.90918 18.00314 Q2.40899 14.08122 3.64885 18.5106 Q5.45961 24.97953 6.32629 39.15681 Q7.19297 53.33408 5.24737 64.54119 Q3.3902 75.23892 11.74413 73.62927 Q20.09806 72.01961 17.93438 66.4914 zM14.88846 6.23723 Q14.90216 5.03432 14.43599 3.96244 Q13.96777 2.85097 13.14744 2.03399 Q12.30479 1.17679 11.21899 0.74545 Q10.10343 0.28618 8.94423 0.29297 Q7.74086 0.28712 6.66947 0.74545 Q5.55562 1.20618 4.74102 2.03399 Q3.8869 2.88285 3.45247 3.96244 Q2.98962 5.07489 3 6.23723 Q2.99705 7.44169 3.45247 8.51197 Q3.91131 9.62587 4.74102 10.44042 Q5.59089 11.29409 6.66947 11.72898 Q7.78145 12.19229 8.94423 12.18146 Q10.14025 12.1633 11.21899 11.72898 Q12.34025 11.26564 13.14744 10.44042 Q13.97847 9.59485 14.43599 8.51197 Q14.89406 7.4278 14.88846 6.23723 z" />
<glyph unicode="&#x22;" horiz-adv-x="34.78516" d="M22.05538 62.97317 Q20.51517 68.0468 20.7644 70.36769 Q21.01363 72.68859 21.8535 74.01324 Q22.55082 75.11306 24.88926 75.9519 Q27.22771 76.79073 29.29676 76.45204 Q31.46898 76.22783 33.97306 74.04595 Q36.47715 71.86407 31.31062 71.55621 Q28.68873 70.60628 28.22273 68.46749 Q27.75673 66.32871 28.75472 61.57984 Q29.1819 59.20423 26.13561 59.38574 Q23.08933 59.56724 22.05538 62.97317 zM6.32293 62.77785 Q4.78272 67.85148 5.03195 70.17238 Q5.28119 72.49328 6.12105 73.81792 Q6.81837 74.91774 9.15682 75.75657 Q11.49526 76.59541 13.56431 76.25672 Q15.73653 76.03251 18.24061 73.85063 Q20.7447 71.66875 15.57817 71.36089 Q12.95628 70.41096 12.49028 68.27218 Q12.02428 66.13339 13.02227 61.38452 Q13.44945 59.00891 10.40317 59.19042 Q7.35688 59.37192 6.32293 62.77785 z" />
<glyph unicode="#" horiz-adv-x="70.64243" d="M16.35316 11.63869 Q20.03537 25.83013 21.05666 44.16816 Q22.07795 62.50619 20.99727 71.03758 Q20.25731 76.87915 27.90912 70.96515 Q35.56094 65.05115 33.33425 64.8509 Q29.96847 63.12118 27.52243 44.2502 Q25.07639 25.37922 29.947 7.66024 Q31.54396 0.29812 22.19114 -0.80481 Q12.83831 -1.90774 16.35316 11.63869 zM55.93282 65.8577 Q52.35007 51.64082 51.45721 33.29609 Q50.56434 14.95136 51.70473 6.42774 Q52.48557 0.5915 44.79254 6.45177 Q37.0995 12.31205 39.32473 12.52789 Q42.67832 14.28114 44.99217 33.16878 Q47.30602 52.05642 42.31146 69.74086 Q40.66299 77.09163 50.00787 78.26002 Q59.35274 79.42841 55.93282 65.8577 zM12.39277 49.92199 Q25.6551 50.47518 41.23692 55.05183 Q56.81874 59.62848 63.42018 63.36553 Q67.94029 65.92435 66.23771 56.20022 Q64.53513 46.47608 63.44266 48.71576 Q60.61185 51.66289 43.99642 48.39497 Q27.38098 45.12704 14.7636 34.65152 Q9.3435 30.74004 4.53835 40.067 Q-0.26679 49.39395 12.39277 49.92199 zM58.79703 27.14406 Q46.05338 25.77172 31.04883 20.60421 Q16.04428 15.4367 9.67271 11.61946 Q5.31 9.00574 7.02495 17.92161 Q8.7399 26.83748 9.77097 24.88153 Q12.46599 22.39929 28.45266 26.44983 Q44.43933 30.50037 56.64464 40.81377 Q61.88291 44.7113 66.42219 36.58267 Q70.96148 28.45403 58.79703 27.14406 z" />
<glyph unicode="$" horiz-adv-x="54.7624" d="M26.45458 72.11324 Q32.95247 72.51568 38.96815 71.85833 Q44.98382 71.20098 48.52498 68.07312 Q51.28965 64.91634 51.70122 62.14036 Q52.11278 59.36439 49.93835 56.1323 Q48.74242 54.33668 46.07875 53.88778 Q43.41508 53.43888 41.13194 55.59361 Q38.30518 59.09505 42.11042 62.41693 Q45.91567 65.73881 31.12959 65.3797 Q23.41039 64.93079 20.53756 61.96655 Q17.66474 59.00232 17.75688 56.49142 Q17.97433 50.5659 23.96667 47.36049 Q29.95901 44.15507 33.63018 42.93455 Q42.00171 40.15134 46.29619 35.88677 Q50.59067 31.62219 50.26451 24.79886 Q49.83151 15.7403 44.30305 10.9324 Q38.7746 6.1245 30.36854 6.1245 Q18.08305 6.1245 11.88594 8.23435 Q5.68884 10.34419 3.51441 15.82081 Q2.34732 18.71213 3.80064 22.20441 Q5.25395 25.69668 11.12489 26.59448 Q16.88711 28.03097 21.07287 25.15799 Q25.25864 22.28501 22.64933 18.1551 Q20.04003 15.10256 15.90863 18.1551 Q11.77722 21.20764 13.1906 17.2573 Q14.71269 13.30695 27.05255 13.62119 Q39.3924 13.93542 40.47961 25.33755 Q40.80578 31.08351 38.30519 34.76451 Q35.8046 38.44551 27.54178 40.24113 Q12.97316 42.39586 8.84175 46.84 Q4.71034 51.28414 5.25395 56.40163 Q5.93904 62.85104 10.60406 67.13576 Q15.26907 71.42047 26.45458 72.11324 zM28.2735 77.44021 Q37.1031 79.78459 34.57027 71.74045 Q32.03745 63.69632 32.42429 38.57842 Q32.68292 21.78552 33.61193 11.0937 Q34.54093 0.40188 28.76336 0.18264 Q22.43222 -0.51638 24.24716 4.2668 Q26.0621 9.04999 26.33304 14.13509 Q26.64421 19.97525 26.28666 26.34653 Q25.92911 32.71782 25.83233 37.52674 Q25.35553 61.21921 24.81431 68.79863 Q24.2731 76.37805 28.2735 77.44021 z" />
<glyph unicode="%" horiz-adv-x="52.75947" d="M7.95266 18.24822 Q18.11642 29.32177 27.74464 45.26887 Q37.37286 61.21596 40.39277 69.31698 Q42.46055 74.86387 46.84211 66.22253 Q51.22368 57.58118 49.04028 58.37818 Q45.06524 58.30709 33.84857 42.50804 Q22.6319 26.70899 18.82322 8.73273 Q16.84041 1.45076 7.54564 4.56437 Q-1.74914 7.67797 7.95266 18.24822 zM18.38826 68.41319 C25.73128 68.08987 26.55002 63.44487 26.34074 59.6164 C26.0925 55.07514 23.33325 49.31311 16.33501 50.16176 C8.64663 51.13937 8.58156 55.48732 8.56498 59.51597 C8.56874 64.41133 10.64595 69.00828 18.38826 68.41319 zM13.71648 57.99913 C12.30226 56.252 12.90508 54.43995 14.9383 53.48129 C19.23209 51.93344 21.16766 52.45688 22.53287 55.34272 C23.72068 58.37272 23.00287 58.74883 21.9574 60.0932 C20.92381 61.48892 16.35786 61.22457 13.71648 57.99913 zM41.04451 24.58172 C48.38753 24.2584 49.20627 19.6134 48.99699 15.78493 C48.74875 11.24366 45.98949 5.48163 38.99125 6.33029 C31.30287 7.30789 31.2378 11.65584 31.22123 15.68449 C31.22498 20.57986 33.30219 25.1768 41.04451 24.58172 zM36.37273 14.24913 C34.95851 12.502 35.56132 10.68996 37.59454 9.73129 C41.88834 8.18344 43.8239 8.70688 45.18912 11.59272 C46.37693 14.62272 45.65911 14.99883 44.61365 16.3432 C43.58005 17.73892 39.0141 17.47457 36.37273 14.24913 z" />
<glyph unicode="&#x26;" horiz-adv-x="62.07049" d="M45.56814 46.44311 Q43.20721 43.2312 41.22562 42.30221 Q39.24403 41.37323 35.49432 39.84375 Q36.95916 36.52344 39.4494 35.20508 Q41.93963 33.88672 44.57635 35.9375 Q49.94744 39.16016 52.47357 40.45231 Q54.99971 41.74446 56.97869 38.28125 Q60.49432 32.12891 57.12518 32.71485 Q53.75603 33.3008 46.04119 27.73438 Q42.80971 25.4028 44.15325 22.10742 Q45.49679 18.81204 50.24041 14.74609 Q54.34197 11.23047 57.71111 10.49804 Q61.08025 9.76562 56.09979 4.98047 Q52.55432 1.57404 51.11682 3.68946 Q49.67932 5.80488 48.09197 7.42188 Q46.5782 8.96392 44.55189 10.9761 Q42.52557 12.98828 37.49932 6.51104 Q32.58376 0.17645 22.7207 -0.06135 Q12.85763 -0.29915 7.6405 5.7463 Q3.38564 10.67578 3.01492 18.2167 Q2.6442 25.75762 8.19601 32.9711 Q13.99045 40.49982 14.73851 41.67092 Q15.48658 42.84203 14.45274 44.34959 Q9.93002 50.94469 11.6394 58.8444 Q13.34878 66.7441 20.6417 71.18154 Q25.44062 74.10148 32.58794 73.34938 Q39.73525 72.59728 42.79057 68.92652 Q46.54029 65.10281 47.88568 58.26457 Q49.23107 51.42633 45.56814 46.44311 zM14.49822 16.21094 Q16.47005 11.31126 21.69747 10.45603 Q26.9249 9.60079 30.41619 11.81641 Q35.49432 15.03906 36.46125 20 Q37.42818 24.96093 34.02947 28.61328 Q27.48651 35.64453 19.38104 29.93164 Q11.27557 24.21875 14.49822 16.21094 zM28.9276 47.80812 C31.94297 46.15047 34.56589 46.59809 38.57921 48.33652 C44.08857 51.09883 44.99179 54.43347 40.74743 59.67679 C38.40411 62.29946 34.64348 62.6436 31.4293 60.13457 C25.50181 55.45909 26.0847 49.68993 28.9276 47.80812 zM71.13885 67.57812 C71.13885 67.57812 71.13885 67.57812 71.13885 67.57812 M79.63494 32.42188 C79.63494 32.42188 79.63494 32.42188 79.63494 32.42188 M97.74858 10.96128 C97.74858 10.96128 97.74858 10.96128 97.74858 10.96128 C97.74858 10.96128 97.74858 10.96128 97.74858 10.96128 z" />
<glyph unicode="'" horiz-adv-x="17.05271" d="M4.32293 63.47467 Q2.78271 68.5483 3.03195 70.8692 Q3.28119 73.1901 4.12105 74.51474 Q4.81837 75.61457 7.15681 76.4534 Q9.49526 77.29223 11.56431 76.95354 Q13.73653 76.72933 16.24061 74.54745 Q18.7447 72.36557 13.57817 72.05771 Q10.95628 71.10778 10.49028 68.969 Q10.02428 66.83021 11.02227 62.08134 Q11.44945 59.70573 8.40317 59.88724 Q5.35688 60.06874 4.32293 63.47467 z" />
<glyph unicode="(" horiz-adv-x="33.8974" d="M5.00886 46.82662 Q7.04154 58.77596 12.89803 67.38989 Q18.75451 76.00382 26.20043 79.37585 Q28.93626 80.17456 30.83874 79.73271 Q32.74123 79.29086 33.61224 76.72854 Q33.72628 63.67676 31.89979 68.52898 Q30.07329 73.3812 27.14806 71.97754 Q24.58691 70.62458 22.7217 67.7984 Q20.85649 64.97221 18.67611 60.94238 Q16.15665 56.49607 14.35254 46.45807 Q12.54842 36.42007 12.29722 23.93067 Q12.09788 14.75098 14.24924 6.12496 Q16.40059 -2.50106 17.77908 -6.24512 Q18.83066 -8.96061 21.72926 -13.20801 Q24.62785 -17.4554 29.24113 -17.96387 Q32.13576 -17.84076 33.13036 -14.53317 Q34.12496 -11.22558 33.83155 -21.48314 Q33.41358 -23.53015 31.08312 -24.36465 Q28.75266 -25.19916 25.48336 -24.74556 Q12.46769 -20.95048 6.41187 -0.73793 Q0.35606 19.47462 5.00886 46.82662 z" />
<glyph unicode=")" horiz-adv-x="33.89739" d="M8.41404 -24.65279 Q5.14474 -25.10639 2.81428 -24.27188 Q0.48382 -23.43738 0.06584 -21.39037 Q-0.22757 -11.13282 0.76704 -14.4404 Q1.76164 -17.74799 4.65626 -17.8711 Q9.26954 -17.36263 12.16813 -13.11523 Q15.06673 -8.86784 16.11832 -6.15235 Q17.4968 -2.40829 19.64816 6.21773 Q21.79951 14.84375 21.60017 24.02343 Q21.34898 36.51283 19.54486 46.55084 Q17.74074 56.58884 15.22129 61.03515 Q13.04091 65.06498 11.17569 67.89117 Q9.31048 70.71735 6.74934 72.07031 Q3.8241 73.47397 1.9976 68.62175 Q0.17111 63.76953 0.28516 76.82131 Q1.15616 79.38363 3.05865 79.82548 Q4.96113 80.26733 7.69697 79.46862 Q15.14289 76.09659 20.99938 67.48266 Q26.85586 58.86873 28.88854 46.91939 Q33.54133 19.56739 27.48552 -0.64516 Q21.4297 -20.85771 8.41404 -24.65279 z" />
<glyph unicode="*" horiz-adv-x="42.61746" d="M37.26071 53.19241 Q27.18063 49.4034 19.20664 41.66789 Q11.23265 33.93238 11.63825 31.7005 Q12.34978 30.55163 6.80535 32.20809 Q1.26092 33.86456 4.27091 35.5334 Q8.66687 37.97067 16.90609 44.83057 Q25.14531 51.69047 30.47532 58.401 Q35.56308 64.80654 38.42881 59.89006 Q41.29454 54.97358 37.26071 53.19241 zM12.10537 59.07178 Q17.37715 52.25023 25.54284 45.28431 Q33.70854 38.31839 38.071 35.84738 Q41.05805 34.15544 35.53368 32.45319 Q30.00931 30.75095 30.72265 31.92317 Q31.13669 34.19782 23.239 42.05641 Q15.34131 49.915 5.32961 53.74776 Q1.32438 55.55139 4.19879 60.56734 Q7.0732 65.58329 12.10537 59.07178 zM25.59791 64.569 Q22.47905 56.28106 23.34178 47.20799 Q24.2045 38.13492 26.00571 37.20192 Q27.22124 37.03464 22.87689 34.46283 Q18.53254 31.89101 19.08617 34.6513 Q19.89473 38.68262 19.7995 47.4557 Q19.70427 56.22879 18.04535 63.11142 Q16.46182 69.68122 21.56084 68.8538 Q26.65986 68.02637 25.59791 64.569 z" />
<glyph unicode="+" horiz-adv-x="38.18251" d="M3.03212 32.17039 Q2.55649 39.38576 5.75546 37.1954 Q8.95442 35.00503 19.41143 34.9086 Q26.4026 34.84413 30.89693 35.42437 Q35.39125 36.0046 35.15625 31.30479 Q35.08933 26.14717 33.2046 27.70067 Q31.31987 29.25416 29.22257 29.55757 Q26.81385 29.90603 24.14673 29.71962 Q21.47962 29.53321 19.4763 29.53321 Q9.60641 29.53321 6.42701 29.21727 Q3.24761 28.90134 3.03212 32.17039 zM15.26301 19.49909 Q17.08181 26.69969 16.9939 35.88663 Q16.90598 45.07356 15.84998 49.29863 Q15.12692 52.19159 20.36271 49.47999 Q25.59849 46.76839 24.15389 46.59834 Q22.02898 45.62889 21.20921 36.13106 Q20.38944 26.63323 24.29614 17.94076 Q25.64091 14.31567 19.58389 13.47071 Q13.52687 12.62576 15.26301 19.49909 z" />
<glyph unicode="," horiz-adv-x="20.05271" d="M15.72978 10.7573 Q17.26999 5.68367 17.02076 3.36277 Q16.77152 1.04187 15.93166 -0.28277 Q15.23434 -1.38259 12.8959 -2.22143 Q10.55745 -3.06026 8.4884 -2.72157 Q6.31618 -2.49736 3.8121 -0.31548 Q1.30801 1.8664 6.47454 2.17426 Q9.09643 3.12419 9.56243 5.26297 Q10.02843 7.40176 9.03044 12.15063 Q8.60326 14.52624 11.64955 14.34474 Q14.69583 14.16323 15.72978 10.7573 z" />
<glyph unicode="-" horiz-adv-x="47.2605" d="M9.87541 38.46475 Q17.77695 35.26334 27.87572 35.21768 Q37.97448 35.17202 42.6263 36.85414 Q45.81146 38.00591 42.79279 29.28259 Q39.77412 20.55927 39.59773 22.98542 Q38.5476 26.56921 28.11371 28.14355 Q17.67982 29.7179 8.09676 23.34912 Q4.10232 21.17015 3.21766 31.34541 Q2.333 41.52066 9.87541 38.46475 z" />
<glyph unicode="." horiz-adv-x="20.38614" d="M16.79476 3.88225 Q16.32288 2.76541 15.46579 1.8933 Q14.63327 1.0422 13.47684 0.56433 Q12.36426 0.11637 11.13072 0.09766 Q9.93147 0.08648 8.78459 0.56433 Q7.67218 1.01286 6.79565 1.8933 Q5.9399 2.7334 5.46667 3.88225 Q4.99697 4.98611 5 6.22837 Q4.9893 7.42717 5.46667 8.5745 Q5.91474 9.68798 6.79565 10.56345 Q7.6358 11.41723 8.78459 11.89242 Q9.8896 12.36513 11.13072 12.35909 Q12.32629 12.36611 13.47684 11.89242 Q14.59671 11.44755 15.46579 10.56345 Q16.31186 9.72085 16.79476 8.5745 Q17.27556 7.46901 17.26143 6.22837 Q17.26721 5.00044 16.79476 3.88225 z" />
<glyph unicode="/" horiz-adv-x="39.03806" d="M4.75473 -15.24786 Q13.10043 9.9129 17.43615 37.28682 Q21.77187 64.66074 18.50171 67.59377 Q15.99332 68.26266 27.19589 73.1029 Q38.39847 77.94313 35.40595 70.20819 Q31.03549 58.9116 25.51845 34.03031 Q20.00142 9.14902 19.08466 -10.62454 Q18.20957 -29.49939 8.95178 -27.43282 Q-0.30601 -25.36625 4.75473 -15.24786 z" />
<glyph unicode="0" horiz-adv-x="53.40995" d="M28.3943 71.58203 C48.01221 70.77542 50.61946 52.67662 50.40995 37.70438 C50.16145 19.94459 43.32571 -2.7414 24.57971 0.13936 C3.9809 3.48103 3.41124 20.466 3 36.20638 C2.56405 55.33458 7.68651 73.42571 28.3943 71.58203 zM41.99269 32.69672 C42.57098 50.54754 41.39917 55.66951 33.97925 58.95801 C18.8331 63.33471 13.22071 57.54957 12.11405 40.74249 C11.72126 23.3225 14.85447 18.3776 19.60462 12.09964 C26.54409 4.89065 41.00133 12.87203 41.99269 32.69672 z" />
<glyph unicode="1" horiz-adv-x="28.05849" d="M56.4661 59.26171 C56.4661 59.26171 56.4661 59.26171 56.4661 59.26171 M6.60912 6.48173 Q10.71422 25.03807 10.56817 44.04078 Q10.42212 63.04349 6.77554 64.14602 Q4.2303 63.95685 14.35038 69.92554 Q24.47047 75.89422 22.79346 70.08291 Q20.34425 61.59571 18.94468 43.92939 Q17.54511 26.26306 19.8042 13.09015 Q21.96061 0.51597 12.63087 -0.4454 Q3.30112 -1.40676 6.60912 6.48173 zM0.96709 69.30847 Q6.3265 69.5068 10.00802 69.61818 Q13.68954 69.72955 17.23746 71.51508 Q18.84593 72.32456 20.346 65.88734 Q21.84607 59.45013 18.95901 60.45934 Q14.85884 61.21908 11.38082 60.76027 Q7.90279 60.30146 4.30625 56.28191 Q2.98163 53.99617 -0.43865 61.56302 Q-3.85894 69.12987 0.96709 69.30847 z" />
<glyph unicode="2" horiz-adv-x="51.63281" d="M22.22572 15.53936 Q22.03041 20.5809 24.39565 25.14792 Q26.7609 29.71495 34.86637 31.57042 Q40.53044 33.03526 44.77849 38.84581 Q49.02653 44.65636 48.59291 53.56092 Q48.22954 61.02281 43.35869 66.42865 Q38.48785 71.8345 28.23086 71.99581 Q21.18952 72.10655 16.71637 70.43195 Q12.24322 68.75735 8.75224 65.04204 Q5.65199 61.75207 4.77312 57.87655 Q3.89424 54.00102 5.40454 52.09565 Q6.6689 50.06094 9.37871 49.62413 Q12.08852 49.18732 14.33519 51.742 Q17.15242 54.89957 15.00448 58.69452 Q12.85655 62.48946 24.16735 63.33328 Q29.39762 63.40636 33.40947 60.38101 Q37.42133 57.35566 38.15952 53.52269 Q38.87028 49.83215 36.72184 44.99816 Q34.5734 40.16417 30.5265 39.48664 Q21.0612 37.90197 15.00283 33.0751 Q8.94447 28.24823 7.96791 19.84567 Q7.77534 12.05834 15.03954 11.48793 Q22.30374 10.91753 22.22572 15.53936 zM39.95852 0.23677 Q30.15073 1.32047 20.85687 0.87347 Q11.56302 0.42646 5.86882 -0.55034 Q2.21418 -1.17727 3.21361 7.17478 Q4.21305 15.52684 6.5568 12.40184 Q9.19352 8.59324 19.1547 8.84019 Q29.11587 9.08715 38.88102 14.55027 Q43.66618 17.67527 46.27848 8.46254 Q48.89077 -0.75019 39.95852 0.23677 z" />
<glyph unicode="3" horiz-adv-x="53.09288" d="M11.19078 35.11953 Q12.63622 22.04231 18.61067 28.73066 Q24.58512 35.419 31.18905 33.25263 Q35.34201 31.89028 37.55421 27.22607 Q39.76642 22.56186 38.90456 18.86808 Q38.00944 15.03174 33.65569 12.11527 Q29.30194 9.19879 23.74123 9.44251 Q11.73551 10.66023 14.12891 14.41242 Q16.52232 18.16461 13.61659 21.43636 Q11.3004 24.08236 8.40577 23.73057 Q5.51113 23.37877 4.10799 21.37065 Q2.44698 19.50079 3.27051 15.569 Q4.09405 11.63721 7.29699 8.22291 Q10.9033 4.36752 15.61279 2.53547 Q20.32229 0.70343 27.8145 0.58594 Q38.72825 0.4148 44.06392 5.70083 Q49.39959 10.98687 50.00021 18.49023 Q50.71695 27.44429 46.36557 33.43451 Q42.01418 39.42472 36.03203 41.08424 Q20.94022 44.84038 15.77641 42.17613 Q10.61261 39.51188 11.19078 35.11953 zM25.42519 37.4032 Q24.81891 39.46179 26.91185 41.01274 Q29.00478 42.56369 37.19751 44.59339 Q42.90857 46.13284 46.80041 50.67885 Q50.69225 55.22487 49.50595 61.59684 Q48.51185 66.93645 43.6005 70.42324 Q38.68915 73.91003 28.08695 74.19977 Q21.37626 74.38316 16.10867 72.64588 Q10.84107 70.9086 7.55477 67.93548 Q4.63551 65.30198 4.03748 61.6936 Q3.43945 58.08523 5.15303 56.84318 Q6.62408 55.48698 9.45089 55.40467 Q12.27769 55.32237 14.37904 57.35354 Q17.01785 59.86751 14.49067 62.41498 Q11.96349 64.96244 23.54106 66.53854 Q28.92103 67.0391 33.30371 65.2052 Q37.68639 63.37129 38.765 60.67572 Q39.80353 58.08031 37.99269 54.417 Q36.18186 50.75369 32.07072 49.91943 Q22.45517 47.96817 17.17008 43.71498 Q11.88498 39.46179 11.2787 37.14587 Q11.51742 34.15477 13.87695 32.75326 Q16.23648 31.35176 19.96869 31.57052 Q23.25097 31.76281 24.44671 33.80629 Q25.64244 35.84977 25.42519 37.4032 z" />
<glyph unicode="4" horiz-adv-x="60.53683" d="M41.79708 65.76036 Q31.22941 50.46563 23.82274 33.35302 Q16.41606 16.2404 18.84267 14.03482 Q20.91587 13.35625 10.60797 11.36993 Q0.30006 9.38362 3.91685 14.04301 Q9.19904 20.84788 17.29027 36.24525 Q25.3815 51.64262 28.82173 64.22458 Q32.1056 76.23468 39.81108 73.98801 Q47.51655 71.74134 41.79708 65.76036 zM48.80183 11.64478 Q40.4661 14.4139 29.24597 14.04532 Q18.02584 13.67673 12.61906 11.86202 Q8.91696 10.61946 12.79702 19.63549 Q16.67708 28.65151 16.53353 26.3155 Q17.1992 22.8971 29.25281 21.77145 Q41.30642 20.6458 53.11619 23.46155 Q58.15111 26.09901 57.45491 17.55026 Q56.7587 9.00152 48.80183 11.64478 zM36.53012 7.27033 Q38.75529 15.40151 38.81285 25.80943 Q38.8704 36.21735 37.72399 41.01817 Q36.93903 44.30534 42.93878 41.16046 Q48.93852 38.01557 47.26723 37.84316 Q44.79644 36.77474 43.68525 26.02735 Q42.57406 15.27995 46.93531 5.37871 Q48.42559 1.25349 41.41584 0.3811 Q34.40609 -0.49128 36.53012 7.27033 z" />
<glyph unicode="5" horiz-adv-x="51.64356" d="M7.97865 52.05678 Q8.95521 43.65422 15.01357 38.82735 Q21.07194 34.00049 30.53724 32.41581 Q34.58414 31.73828 36.73258 26.90429 Q38.88102 22.07031 38.17026 18.37976 Q37.43207 14.54679 33.42022 11.52144 Q29.40836 8.49609 24.17809 8.56917 Q12.86729 9.41299 15.01523 13.20794 Q17.16316 17.00288 14.34593 20.16045 Q12.09926 22.71513 9.38945 22.27832 Q6.67964 21.84151 5.41528 19.8068 Q3.90498 17.90143 4.78385 14.02591 Q5.66273 10.15038 8.76298 6.86041 Q12.25396 3.1451 16.72711 1.4705 Q21.20026 -0.2041 28.2416 -0.09336 Q38.49859 0.06795 43.36944 5.4738 Q48.24028 10.87965 48.60365 18.34153 Q49.03727 27.24609 44.78923 33.05664 Q40.54118 38.86719 34.87711 40.33203 Q26.77164 42.1875 24.4064 46.75453 Q22.04115 51.32155 22.23646 56.36309 Q22.31448 60.98492 15.05028 60.41451 Q7.78608 59.84411 7.97865 52.05678 zM38.88102 57.42188 Q29.11587 62.885 19.1547 63.13196 Q9.19352 63.37891 6.5568 59.57031 Q4.21305 56.44531 3.21361 64.79736 Q2.21418 73.14942 5.86882 72.52249 Q11.56302 71.54569 20.85688 71.09868 Q30.15073 70.65168 39.95852 71.73538 Q48.89077 72.72234 46.27848 63.50961 Q43.66618 54.29688 38.88102 57.42188 z" />
<glyph unicode="6" horiz-adv-x="51.0384" d="M22.49557 -1.07422 C4.1223 1.1106 1.81661 17.76916 3.42589 31.97948 C4.9039 44.73063 1.13816 77.1482 33.79469 72.08536 C43.26243 70.10029 48.26081 68.32813 48.0384 64.01753 C47.15962 52.41114 42.82923 62.1926 32.82016 63.09188 C20.01268 64.14188 15.48919 57.98788 14.93938 53.71521 C10.00646 29.74281 20.05885 51.38762 33.28959 47.1664 C46.43528 42.5214 48.00971 31.64172 47.39936 20.72794 C46.60059 7.47177 38.63142 -1.93298 22.49557 -1.07422 zM22.29479 10.52003 C28.32954 12.036 31.46284 15.81653 35.07729 22.9738 C39.61817 33.28877 37.1354 38.73453 25.38215 40.39226 C19.19796 40.95287 13.60146 36.81703 11.95736 29.62989 C8.97957 16.31253 16.248 9.50636 22.29479 10.52003 z" />
<glyph unicode="7" horiz-adv-x="57.1917" d="M7.66881 9.72229 Q20.34086 27.62551 29.22246 47.65666 Q38.10405 67.6878 35.19422 70.26954 Q32.70818 71.06383 45.06874 73.38892 Q57.4293 75.714 53.09228 70.25995 Q46.75823 62.29452 37.05576 44.27116 Q27.3533 26.24779 23.228 11.52 Q19.2902 -2.5384 10.0503 0.09143 Q0.8104 2.72127 7.66881 9.72229 zM10.78588 73.4075 Q18.21587 70.16611 28.21685 70.59755 Q38.21783 71.02899 43.03713 73.15321 Q46.33697 74.60769 42.8785 64.05399 Q39.42004 53.5003 39.54799 56.23471 Q38.95465 60.23612 28.21075 61.55374 Q17.46686 62.87137 6.94031 59.5754 Q2.45247 56.48812 3.07302 66.49484 Q3.69358 76.50156 10.78588 73.4075 z" />
<glyph unicode="8" horiz-adv-x="52.18287" d="M27.86401 40.23101 C46.86102 39.7864 49.38575 29.8103 49.18287 21.55757 C48.94224 11.76834 42.32284 -0.73623 24.17015 0.85165 C4.22328 2.69358 3.67165 12.05574 3.27342 20.73187 C2.85127 31.27538 7.81161 41.24725 27.86401 40.23101 zM39.26458 18.28173 C39.77669 27.09186 38.73898 29.61976 32.16822 31.24277 C18.75544 33.40286 13.78535 30.54765 12.80534 22.25265 C12.4575 13.65516 15.23214 11.21464 19.43867 8.11621 C25.58396 4.55827 38.38667 8.49742 39.26458 18.28173 zM26.36232 73.33166 C45.01904 73.6319 47.93415 64.63357 48.09764 57.10461 C48.29156 48.1739 42.34684 36.5316 24.46821 37.30469 C4.81826 38.2427 3.86583 46.75475 3.09404 54.64727 C2.21675 64.2408 6.64509 73.51322 26.36232 73.33166 zM30.9094 42.24854 C36.33061 43.90397 38.79045 46.66247 41.2965 51.61842 C44.28801 58.68407 41.33807 61.85336 30.23318 61.5539 C24.42708 61.19863 19.72323 57.93158 19.04943 53.18318 C17.86461 44.39255 25.41748 40.91037 30.9094 42.24854 z" />
<glyph unicode="9" horiz-adv-x="56" d="M31.02005 73.22054 C49.39332 71.03572 52.14844 52.44141 52.34375 39.35547 C52.15636 26.923 52.37746 -5.00188 19.72093 0.06096 C10.25319 2.04603 5.25481 3.81819 5.47722 8.12879 C6.356 19.73518 10.68639 9.95372 20.69546 9.05444 C40.72266 7.22656 41.44238 21.21561 41.99219 25.48828 C46.92511 49.46068 33.73855 24.978 20.50781 29.19922 C7.36212 33.84422 5.85937 44.92188 6.11626 51.41838 C6.91503 64.67455 14.8842 74.0793 31.02005 73.22054 zM31.76012 62.8032 C27.08166 60.68378 25.09309 57.15203 23.21066 50.8068 C21.04048 41.76048 23.85848 37.70269 33.6487 38.08594 C38.75414 38.54071 42.69108 42.72355 42.96875 48.80306 C43.4275 60.05796 36.52228 64.51641 31.76012 62.8032 z" />
<glyph unicode=":" horiz-adv-x="17.70972" d="M14.19641 41.79773 Q13.76701 40.78139 12.98703 39.98777 Q12.22944 39.21327 11.17709 38.77841 Q10.16463 38.37077 9.04209 38.35373 Q7.95077 38.34355 6.90711 38.77841 Q5.8948 39.18657 5.09715 39.98777 Q4.31842 40.75227 3.88778 41.79773 Q3.46035 42.80226 3.4631 43.93273 Q3.45337 45.02364 3.88778 46.06771 Q4.29552 47.08098 5.09715 47.87766 Q5.86171 48.65462 6.90711 49.08705 Q7.91267 49.5172 9.04209 49.51172 Q10.13007 49.51811 11.17709 49.08705 Q12.19618 48.68221 12.98703 47.87766 Q13.75698 47.1109 14.19641 46.06771 Q14.63394 45.0617 14.62109 43.93273 Q14.62635 42.8153 14.19641 41.79773 zM14.26404 5.86038 Q13.8134 4.79379 12.99486 3.96093 Q12.19981 3.14813 11.09542 2.69177 Q10.0329 2.26397 8.85485 2.24609 Q7.70957 2.23541 6.6143 2.69177 Q5.55194 3.1201 4.71485 3.96093 Q3.89761 4.76323 3.44568 5.86038 Q2.99712 6.91458 3 8.10095 Q2.98979 9.2458 3.44568 10.3415 Q3.87358 11.40487 4.71485 12.24094 Q5.51721 13.05632 6.6143 13.51013 Q7.66958 13.96156 8.85485 13.9558 Q9.99663 13.9625 11.09542 13.51013 Q12.1649 13.08528 12.99486 12.24094 Q13.80288 11.43627 14.26404 10.3415 Q14.7232 9.28574 14.70972 8.10095 Q14.71524 6.92827 14.26404 5.86038 z" />
<glyph unicode=";" horiz-adv-x="20.52526" d="M15.0803 11.35443 Q16.50027 6.20832 16.24964 3.86104 Q15.99902 1.51376 15.19755 0.17905 Q14.53211 -0.92913 12.31952 -1.76149 Q10.10693 -2.59385 8.15642 -2.23632 Q6.10776 -1.99393 3.75889 0.23222 Q1.41002 2.45838 6.28823 2.73321 Q8.76907 3.67599 9.22308 5.83738 Q9.6771 7.99878 8.76672 12.81234 Q8.37931 15.2198 11.25319 15.01441 Q14.12707 14.80901 15.0803 11.35443 zM16.67567 42.47673 Q16.25688 41.48552 15.49619 40.71152 Q14.75733 39.95616 13.73099 39.53206 Q12.74357 39.13449 11.64878 39.11788 Q10.58444 39.10795 9.56658 39.53206 Q8.5793 39.93012 7.80137 40.71152 Q7.04189 41.45712 6.6219 42.47673 Q6.20504 43.45642 6.20772 44.55894 Q6.19823 45.62288 6.6219 46.64114 Q7.01956 47.62936 7.80137 48.40634 Q8.54703 49.16409 9.56658 49.58583 Q10.54728 50.00535 11.64878 50 Q12.70986 50.00623 13.73099 49.58583 Q14.72489 49.191 15.49619 48.40634 Q16.2471 47.65854 16.67567 46.64114 Q17.10238 45.66 17.08985 44.55894 Q17.09498 43.46914 16.67567 42.47673 z" />
<glyph unicode="&#x3c;" horiz-adv-x="60.76277" d="M14.94322 30.21086 Q23.36699 22.90462 35.72844 17.31539 Q48.08989 11.72617 54.45547 10.72962 Q58.81407 10.04727 51.67432 3.62297 Q44.53456 -2.80134 45.27489 -0.45657 Q45.40059 3.44068 33.23106 10.63035 Q21.06152 17.82001 6.80322 17.18285 Q1.04757 17.358 3.97495 27.27151 Q6.90233 37.18502 14.94322 30.21086 zM10.10814 19.30187 Q11.93238 19.79582 7.25717 25.5308 Q2.58197 31.26578 11.16248 35.36222 Q21.42416 39.9773 28.04915 42.28689 Q34.67414 44.59648 42.19788 46.97915 Q48.18692 49.4285 53.32244 51.45309 Q58.45796 53.47768 57.6631 45.31588 Q56.81431 38.77356 52.87182 39.76362 Q48.92932 40.75367 33.9712 34.75115 Q26.58017 31.49378 22.59083 27.6352 Q18.60148 23.77661 18.48225 21.33441 " />
<glyph unicode="=" horiz-adv-x="60.17579" d="M16.25844 48.78567 Q25.20147 45.43216 36.63134 45.38433 Q48.06122 45.3365 53.32618 47.09854 Q56.93117 48.30503 53.51462 39.16726 Q50.09806 30.02949 49.89842 32.5709 Q48.70987 36.32496 36.9007 37.97411 Q25.09154 39.62325 14.24535 32.95188 Q9.72441 30.66939 8.72315 41.32808 Q7.72188 51.98677 16.25844 48.78567 zM46.20501 9.56064 Q37.38259 12.67339 26.10686 12.71777 Q14.83113 12.76215 9.63717 11.12664 Q6.08079 10.00678 9.45127 18.48848 Q12.82175 26.97019 13.0187 24.61124 Q14.19121 21.1267 25.84113 19.59596 Q37.49104 18.06522 48.19095 24.25761 Q52.65092 26.37622 53.63868 16.4828 Q54.62645 6.58937 46.20501 9.56064 z" />
<glyph unicode="&#x3e;" horiz-adv-x="60.73919" d="M45.79596 21.72496 Q37.37219 29.0312 25.01074 34.62043 Q12.64929 40.20965 6.28371 41.2062 Q1.92511 41.88855 9.06487 48.31286 Q16.20462 54.73716 15.46429 52.39239 Q15.33859 48.49514 27.50813 41.30548 Q39.67766 34.11581 53.93596 34.75297 Q59.69161 34.57782 56.76423 24.66431 Q53.83685 14.7508 45.79596 21.72496 zM50.65463 32.61719 Q48.83039 32.12324 53.5056 26.38826 Q58.1808 20.65328 49.60029 16.55684 Q39.33861 11.94176 32.71362 9.63217 Q26.08863 7.32258 18.56489 4.93991 Q12.57585 2.49056 7.44033 0.46597 Q2.30481 -1.55862 3.09967 6.60318 Q3.94846 13.1455 7.89096 12.15544 Q11.83345 11.16539 26.79157 17.16791 Q34.1826 20.42528 38.17194 24.28386 Q42.16129 28.14245 42.28052 30.58465 " />
<glyph unicode="?" horiz-adv-x="52.34988" d="M25.38245 18.55067 Q25.07141 21.56358 25.66086 29.58062 Q26.25031 37.59766 36.13852 38.10845 Q41.87531 38.57421 45.98558 44.16596 Q50.09585 49.75771 49.22988 55.20703 Q48.13853 62.07462 42.36621 66.85709 Q36.59389 71.63956 26.33698 71.48438 Q19.29569 71.37785 14.87083 69.68848 Q10.44598 67.99911 7.05929 64.44239 Q4.0514 61.29259 3.2801 57.66467 Q2.5088 54.03674 4.07113 52.31088 Q5.3912 50.4575 8.11189 50.13215 Q10.83258 49.8068 13.0076 52.24786 Q15.73626 55.26619 13.48432 58.72919 Q11.23238 62.19219 22.51484 63.31285 Q30.34662 63.28254 33.33959 60.73853 Q36.33255 58.19451 36.58401 54.57355 Q36.89484 50.09765 34.21281 46.90036 Q31.53078 43.70308 26.9339 43.74999 Q17.36359 43.84766 16.59273 35.80496 Q15.82187 27.76226 16.01891 20.82528 Q16.0418 13.58227 20.81503 13.91994 Q25.58826 14.25762 25.38245 18.55067 zM25.90533 3.23054 Q25.53906 2.36366 24.87379 1.68674 Q24.22759 1.02612 23.32998 0.6552 Q22.46641 0.30749 21.50894 0.29297 Q20.57809 0.28429 19.68789 0.6552 Q18.82444 1.00334 18.14408 1.68674 Q17.47986 2.33882 17.11254 3.23054 Q16.74796 4.08735 16.75032 5.05159 Q16.74201 5.98208 17.11254 6.87263 Q17.46033 7.73691 18.14408 8.41644 Q18.79621 9.07915 19.68789 9.44798 Q20.54559 9.8149 21.50894 9.81021 Q22.43693 9.81566 23.32998 9.44798 Q24.19921 9.10268 24.87379 8.41644 Q25.5305 7.76243 25.90533 6.87263 Q26.27852 6.01456 26.26756 5.05159 Q26.27204 4.09848 25.90533 3.23054 z" />
<glyph unicode="@" horiz-adv-x="68.76075" d="M25.79044 25.4688 Q29.22899 19.27198 35.40352 22.59337 Q41.57805 25.91477 43.27038 36.4266 Q44.33653 42.16277 44.57829 47.85257 Q44.82005 53.54236 47.80176 53.85153 Q57.95569 54.62446 53.60401 50.09459 Q49.25233 45.56472 46.25344 26.35827 Q45.8489 23.76739 45.10522 19.23467 Q44.36154 14.70196 46.51309 14.80441 Q49.07446 14.80441 52.43176 19.95103 Q55.78906 25.09766 58.80768 39.18868 Q60.76953 53.125 51.2768 59.48363 Q41.78408 65.84225 28.37858 62.44594 Q23.46484 61.32812 17.36132 54.73633 Q11.25781 48.14453 9.89063 33.59375 Q8.99613 23.13209 11.56315 16.52323 Q14.13017 9.91438 21.60938 6.73828 Q30.52295 3.86954 34.70793 10.25029 Q38.89291 16.63105 39.57813 9.96094 Q40.06641 2.63672 30.69141 1.12304 Q21.31641 -0.39063 15.65234 2.44141 Q6.66797 8.20313 4.03125 19.14062 Q1.39453 30.07812 5.4961 47.16797 Q8.81641 57.8125 15.84766 64.20898 Q22.87891 70.60547 35.24305 71.66688 Q49.53926 72.09152 59.10948 63.1942 Q68.67969 54.29688 64.48047 36.71875 Q59.69531 17.1875 50.71693 11.6456 Q41.73855 6.10371 40.69899 14.33863 Q40.61101 16.48505 40.22822 18.6879 Q39.84543 20.89075 38.1934 20.04052 Q36.17874 18.41737 32.91497 14.43679 Q29.6512 10.45621 23.05048 13.5657 Q13.16557 19.49742 16.14728 35.92858 Q19.12899 52.35974 34.60164 54.21477 Q38.74454 54.94071 41.3298 53.49023 Q43.91507 52.03975 43.75388 47.32489 Q42.30333 36.96765 41.13482 42.80325 Q39.96631 48.63886 34.38889 46.81169 Q32.55233 46.39738 30.37279 45.07451 Q28.19325 43.75164 26.6695 41.8371 Q24.59038 38.97727 24.18745 34.03053 Q23.78451 29.08378 25.79044 25.4688 z" />
<glyph unicode="A" horiz-adv-x="53.92203" d="M41.08594 9.27735 Q41.30894 14.18333 40.51385 21.41437 Q39.71875 28.64541 33.94922 28.83867 Q27.02344 29.329 25.70508 30.25673 Q24.38672 31.18447 23.21484 34.89541 Q21.26172 40.65713 27.9587 37.47271 Q34.65567 34.28829 36.29297 37.43242 Q39.6598 43.89805 33.41166 52.66808 Q27.16353 61.43811 20.57031 57.06133 Q9.64062 43.3915 17.25781 44.02626 Q24.875 44.66103 17.54297 39.38555 Q10.6345 32.61254 10.10185 22.92262 Q9.56921 13.2327 12.26953 10.86992 Q13.83203 10.4793 11.19381 4.05377 Q8.55559 -2.37177 6.3125 2.86211 Q2.21094 12.43242 3.1875 30.01055 Q4.16407 47.58867 12.44984 60.98644 Q17.6644 69.41818 22.44439 71.80908 Q27.22439 74.19999 33.38081 66.53678 C46.64453 50.03008 51.72266 37.9207 49.28125 13.21367 Q48.58691 4.06139 50.54187 2.36716 Q52.49682 0.67293 44.40625 0.19532 Q35.32422 0.09766 38.10743 2.53906 Q40.89063 4.98047 41.08594 9.27735 z" />
<glyph unicode="B" horiz-adv-x="52.92843" d="M25.055 62.06916 Q18.98651 62.05653 16.99146 59.3773 Q14.99641 56.69807 13.33625 48.69025 Q12.35969 36.67854 19.10774 36.90627 Q25.8558 37.134 19.19966 31.23939 Q11.8728 24.81091 11.25503 17.21656 Q10.63725 9.62221 13.64805 7.40397 Q15.4387 7.02704 8.75142 2.1257 Q2.06414 -2.77564 3.13696 2.64433 Q4.70378 10.56 5.65505 29.1241 Q6.60633 47.68821 5.82293 59.279 Q5.14743 69.27339 19.1823 71.19608 Q33.21716 73.11877 41.61082 66.89933 C50.78789 58.98367 51.02888 46.36068 38.04669 35.99494 Q35.28487 33.66946 35.54273 32.29314 Q35.8006 30.91682 40.4881 28.2801 Q45.97488 24.5454 43.76689 17.86782 Q41.55891 11.19025 31.40266 5.23322 Q27.10578 3.57307 29.44953 1.7176 Q31.79328 -0.13787 18.70735 0.1551 Q15.68 0.05744 12.54239 -0.00687 Q9.40477 -0.07117 10.9925 1.13166 Q44.78497 26.91291 31.89264 28.13362 Q19.00031 29.35432 33.84406 41.65901 Q42.73078 48.29963 41.50146 54.39031 Q40.27214 60.48099 25.055 62.06916 zM49.92843 37.81008 C49.9223 37.8058 49.91005 37.79725 49.90392 37.79297 C49.91005 37.79725 49.9223 37.8058 49.92843 37.81008 z" />
<glyph unicode="C" horiz-adv-x="52.9348" d="M13.39476 46.66326 Q18.76585 38.85076 14.96353 28.56153 Q11.16122 18.27231 17.9846 12.09294 Q21.63281 8.78906 30.39759 10.24781 Q39.16237 11.70655 39.40625 15.52734 Q39.69922 20.11719 44.99167 19.66837 Q50.28412 19.21955 49.9182 16.29216 Q49.42992 12.38591 44.30296 6.81951 Q39.17601 1.2531 31.55882 0.76482 Q27.80968 0.52449 20.26042 1.96301 Q12.71116 3.40153 9.09788 7.69841 Q6.54184 10.73803 4.62849 16.01183 Q2.71514 21.28564 3.0432 34.84685 Q3.20428 41.50555 3.7057 50.42809 Q4.20712 59.35063 9.68382 64.82732 Q14.27367 69.41716 17.95879 70.16265 Q21.6439 70.90814 24.76122 71.14794 Q27.30028 71.34326 35.90378 70.67211 Q44.50728 70.00097 46.7932 65.70622 Q48.59203 62.32661 48.89587 59.00117 Q49.1997 55.67574 47.6721 52.71794 Q46.46305 50.37649 44.40804 49.73613 Q42.35304 49.09578 40.15257 51.2531 Q36.60985 54.72635 40.13902 58.60497 Q43.6682 62.48359 29.64403 62.65185 Q28.84891 62.66139 25.95582 62.57248 Q23.06273 62.48357 18.86351 61.70232 Q14.76195 60.04216 12.51586 56.03825 Q10.26976 52.03435 13.39476 46.66326 z" />
<glyph unicode="D" horiz-adv-x="55.10467" d="M10.24842 2.63672 Q45.00637 27.25693 39.73677 45.12261 Q34.46717 62.98828 21.18592 61.81641 Q17.18201 61.13281 15.17154 56.07928 Q13.16107 51.02575 12.78748 48.53516 Q9.1742 35.83984 16.05897 37.20703 Q22.94373 38.57422 17.13565 32.46554 Q10.74231 25.80361 10.20324 17.93347 Q9.66418 10.06332 12.29138 7.76452 Q13.85388 7.3739 8.01863 2.29456 Q2.18337 -2.78478 3.11951 2.83203 Q4.4867 11.03516 5.31678 30.27344 Q6.14685 49.51172 5.46326 61.52344 Q4.87382 71.88079 19.52401 71.58492 Q34.1742 71.28906 42.27967 62.30469 C61.22498 38.28125 48.62733 17.96875 39.34998 12.30469 Q28.90076 5.37109 31.34216 2.88086 Q33.78357 0.39063 27.14295 0.09766 Q22.06483 -0.29297 14.88444 0.27074 Q7.70406 0.83446 10.24842 2.63672 z" />
<glyph unicode="E" horiz-adv-x="39.65728" d="M14.77397 42.29446 Q15.60532 41.09261 19.1698 41.38556 Q22.73429 41.67851 23.80845 43.04574 Q23.86878 43.12253 23.85128 43.10733 Q23.83378 43.09214 23.85746 43.13766 Q24.5897 44.21761 25.61509 45.68246 Q26.64048 47.1473 28.69126 46.95199 Q29.2772 46.65902 29.42601 46.32122 Q29.57483 45.98342 29.66782 45.48714 Q30.05845 43.04574 27.86118 41.38558 Q25.66392 39.72542 25.66392 37.47933 Q25.66392 35.59904 26.46226 34.00992 Q27.26059 32.4208 27.61704 29.56917 Q27.81235 28.00667 27.42173 24.53987 Q27.0311 21.07308 25.4686 23.02621 Q24.66545 24.8187 23.79749 29.09823 Q22.92954 33.37777 20.97642 34.25667 Q16.95885 36.06458 14.51254 33.4734 Q12.06623 30.88221 11.72795 28.85254 Q10.9467 24.16504 11.06473 19.85253 Q11.18277 15.54002 12.80217 13.42285 Q16.42121 8.69141 21.69707 8.10992 Q26.97294 7.52842 27.26106 13.86719 Q27.45637 18.16406 32.02154 17.20696 Q36.5867 16.24987 36.24543 9.76562 Q36.05012 6.05468 32.48566 3.17383 Q28.92121 0.29297 20.52277 0 Q10.92178 -0.33492 7.17735 5.39895 Q3.43292 11.13281 3.03655 29.24316 Q2.73829 42.87069 4.74988 57.75966 Q6.76147 72.64863 20.42512 73.24219 Q26.95517 73.52586 32.47921 70.94262 Q38.00325 68.35938 36.24543 60.35156 Q35.60882 57.45146 32.50977 56.41066 Q29.41072 55.36987 27.45637 57.32422 Q24.52668 60.25391 27.55402 62.74415 Q30.58137 65.23439 22.57356 65.625 Q19.63275 65.76845 17.73402 64.72016 Q15.83528 63.67188 15.24934 61.81641 Q14.32639 58.89376 15.18514 56.58331 Q16.04388 54.27286 16.2259 51.26953 Q16.42121 48.04688 15.19956 45.74608 Q13.9779 43.44529 14.77397 42.29446 z" />
<glyph unicode="F" horiz-adv-x="48.0315" d="M42.37426 67.74519 Q45.01431 64.52253 45.0315 62.03135 Q45.04869 59.54016 43.91429 57.58894 Q42.15426 54.56159 40.04683 53.95304 Q37.93939 53.34448 35.77415 54.26863 Q30.05404 56.71003 34.12412 60.22563 Q38.19419 63.74123 27.414 64.71784 Q25.94766 64.85068 22.86073 64.53629 Q19.7738 64.2219 17.89739 62.4371 Q14.81733 59.50742 15.75983 57.15166 Q16.70233 54.7959 16.90737 51.79257 Q17.12738 48.56992 15.68901 45.48322 Q14.25064 42.39653 15.14733 41.2457 Q16.08378 40.04385 20.09892 40.33677 Q24.11407 40.62968 25.32396 41.99698 Q25.39191 42.07377 25.3722 42.05858 Q25.35249 42.04338 25.37916 42.0889 Q26.20397 43.16885 27.35899 44.63369 Q28.51401 46.09854 30.82405 45.90323 Q31.48407 45.61026 31.65169 45.27246 Q31.81932 44.93466 31.92407 44.43838 Q32.36408 41.99698 29.88903 40.33682 Q27.41399 38.67667 27.41399 36.43057 Q27.41399 34.55028 28.31324 32.96116 Q29.2125 31.37204 29.61403 28.52042 Q29.69338 27.95689 29.70196 26.97814 Q29.71054 25.9994 29.6292 24.81825 Q29.56125 23.83124 29.3965 23.07998 Q29.23174 22.32872 28.97021 21.81334 Q28.67698 21.23532 28.2329 21.27634 Q27.78882 21.31736 27.19399 21.97745 Q26.2893 23.76995 25.31162 28.04948 Q24.33394 32.32902 22.1339 33.20792 Q17.60843 35.01582 16.24196 32.01142 Q14.8755 29.00701 14.75 26.95312 Q13.53659 7.09415 15.9011 3.64473 Q18.26562 0.19531 10.84375 0.39062 Q0.98047 0.19531 3.51953 3.8086 Q6.0586 7.42188 6.15625 28.41797 Q6.31795 63.18445 4.91874 67.82271 Q3.51953 72.46097 21.41745 72.30038 Q24.28405 72.27466 31.71748 71.97726 Q39.15092 71.67986 42.37426 67.74519 z" />
<glyph unicode="G" horiz-adv-x="53.1983" d="M47.0193 65.52734 Q48.81813 62.14773 49.12197 58.82229 Q49.4258 55.49686 47.8982 52.53906 Q46.68915 50.19761 44.63414 49.55726 Q42.57913 48.9169 40.37867 51.07422 Q36.83595 54.54747 40.21745 59.10967 Q43.59894 63.67188 29.57376 63.67188 Q19.02688 63.67188 14.29743 58.18953 Q9.56798 52.70718 12.77688 46.77734 Q16.48782 41.11328 13.94876 29.24804 Q11.40969 17.3828 19.31985 12.40234 Q24.84376 8.92433 33.07766 11.9694 Q41.31155 15.01446 40.67164 21.09375 Q40.31026 24.52692 34.22705 22.46853 Q28.14384 20.41015 28.10891 25.68359 Q27.81594 38.18359 31.47805 35.15625 Q35.14016 32.12891 42.46438 31.73828 Q45.19876 31.54297 47.88431 28.85743 Q50.56986 26.17188 50.1443 16.11328 Q50.01587 13.07768 47.412 6.78298 Q44.80813 0.48828 24.69094 0.48828 Q11.00652 0.48828 7.96332 7.1346 Q4.92013 13.78092 3.2693 34.66797 Q2.32766 46.58203 4.67141 58.25195 Q7.01516 69.92187 24.98732 70.96906 Q31.02877 71.32108 37.88108 70.57159 Q44.73338 69.82209 47.0193 65.52734 z" />
<glyph unicode="H" horiz-adv-x="60.93464" d="M51.03324 59.27734 Q46.91124 48.17956 48.6531 29.61392 Q50.39496 11.04828 52.27513 3.13261 Q53.56251 -2.28736 45.53784 2.61398 Q37.51317 7.51532 39.66193 7.89225 Q43.27486 10.11049 42.53353 17.70484 Q41.79221 25.29919 33.00006 31.72767 Q25.01276 37.62228 34.03866 36.38927 Q43.06456 35.15625 41.18958 47.65625 Q39.78334 55.27343 39.13881 57.76367 Q38.49429 60.2539 35.56463 65.33203 Q31.58029 71.77734 43.5919 71.67969 Q55.60352 71.58203 51.03324 59.27734 zM57.8921 34.62885 C57.9033 34.63914 57.92568 34.65974 57.93688 34.67003 M4.42565 12.42628 Q8.77899 23.41048 7.78147 42.0126 Q6.78394 60.61472 5.26817 68.57577 Q4.2303 74.02681 11.74554 68.9175 Q19.26078 63.80819 17.18726 63.48778 Q13.64345 61.36537 14.07911 53.75534 Q14.51478 46.14531 22.71045 39.4895 Q30.15389 33.38839 21.54601 34.85744 Q12.93813 36.32649 14.28291 23.78352 Q15.35517 16.13324 15.88286 13.62734 Q16.41054 11.12144 19.03513 5.96901 Q22.62126 -0.57757 11.11006 -0.16503 Q-0.40114 0.2475 4.42565 12.42628 z" />
<glyph unicode="I" horiz-adv-x="20.77344" d="M3.58631 11.94212 Q6.36837 26.33711 6.2339 44.70306 Q6.09944 63.06902 4.48415 71.51552 Q3.37814 77.29896 11.38687 71.87809 Q19.39561 66.45722 17.18593 66.11727 Q13.93564 64.17922 12.68171 45.19173 Q11.42777 26.20425 17.40352 8.82681 Q19.4605 1.57974 10.19559 -0.10944 Q0.93069 -1.79861 3.58631 11.94212 z" />
<glyph unicode="J" horiz-adv-x="36.15771" d="M24.24853 19.44993 Q25.79433 35.80905 24.51848 52.19669 Q23.24264 68.58433 20.14697 70.35625 Q17.83584 70.69757 25.9668 73.65645 Q34.09777 76.61532 33.03759 71.57556 Q30.57949 59.89048 30.71567 47.35729 Q30.85186 34.82411 32.43495 18.53544 Q33.31386 9.4922 29.50028 5.08628 Q25.68671 0.68035 18.74263 0.30544 Q14.32362 0.06664 10.93647 3.35689 Q7.54931 6.64714 5.88916 12.94692 Q4.03369 22.29499 3.10596 25.54649 Q2.17822 28.798 9.20947 27.88351 Q15.65478 27.88351 13.87201 24.66627 Q12.08924 21.44904 12.52978 17.41774 Q13.40869 7.35841 18.41818 6.99838 Q23.42766 6.63834 24.24853 19.44993 z" />
<glyph unicode="K" horiz-adv-x="50.11474" d="M11.61814 18.44502 Q11.61964 18.4217 11.41138 34.25968 Q11.20313 50.09766 11.86703 12.82027 Q12.08204 6.93359 15.08761 3.33217 Q18.09319 -0.26925 10.29921 -0.30988 Q1.79786 -0.92346 3.17703 2.65983 Q4.5562 6.24311 4.5117 33.82035 Q4.50283 39.31705 4.58373 45.18365 Q4.66462 51.05026 4.71128 59.28434 Q4.75222 66.52864 3.51133 69.18039 Q2.27043 71.83214 9.59655 72.02492 Q18.18946 72.25104 14.45874 68.23577 Q10.72801 64.22051 11.20313 50.09766 M34.12691 2.2915 Q30.42578 14.49066 20.701 22.46447 Q10.97623 30.43827 7.7048 29.10373 Q5.93432 27.74149 9.26444 35.77503 Q12.59456 43.80857 14.47066 40.35597 Q17.21063 35.31358 25.6337 26.67369 Q34.05677 18.03381 42.76608 13.2488 Q51.07955 8.68127 43.53379 3.09233 Q35.98802 -2.49661 34.12691 2.2915 zM42.63429 59.13949 Q34.14061 55.25416 25.64964 47.73558 Q17.15866 40.21701 14.24281 35.67913 Q12.24628 32.57197 9.67819 40.33196 Q7.1101 48.09195 8.67587 46.69301 Q11.65051 45.21663 21.3158 52.02114 Q30.98109 58.82564 35.291 70.00597 Q37.36548 74.36606 44.05371 68.60715 Q50.74195 62.84824 42.63429 59.13949 z" />
<glyph unicode="L" horiz-adv-x="52.38103" d="M49.22725 8.84683 Q48.28622 -1.47236 35.60405 0.74345 Q22.92188 2.95927 15.01172 0.71153 Q9.73829 -1.33187 6.02735 1.78432 Q2.31641 4.90051 4.26668 14.7727 Q7.90723 33.20104 6.38797 48.38085 Q4.86872 63.56067 3.13925 71.8897 Q1.95506 77.5927 10.52992 72.24723 Q19.10479 66.90176 16.73891 66.56654 Q15.68226 65.98627 13.82369 62.65484 Q11.96512 59.32341 13.99071 25.29622 Q15.31405 16.63878 17.84144 13.61125 Q20.36884 10.58372 28.41992 9.9707 Q37.3633 9.66419 43.87035 15.38572 Q50.37741 21.10724 49.22725 8.84683 z" />
<glyph unicode="M" horiz-adv-x="85.72172" d="M72.57487 17.6677 Q74.35442 25.57239 72.86541 32.29705 Q71.3764 39.0217 66.87235 47.89731 Q60.31621 60.81673 56.14089 55.98746 Q51.96557 51.15819 50.37403 42.82571 Q50.06538 41.20978 53.11961 34.52754 Q56.17384 27.8453 45.41202 33.98943 Q42.2689 36.38367 41.04953 36.3264 Q39.83017 36.26913 37.18128 34.38496 Q16.88964 16.81206 24.40594 28.5057 Q31.92224 40.19933 29.89089 44.30288 Q27.0698 50.00179 25.33206 49.03422 Q23.59432 48.06665 19.0983 40.96082 Q17.35293 38.20231 15.07085 31.61473 Q12.78876 25.02715 11.81252 16.67136 Q11.55166 13.30877 11.94515 5.22603 Q12.33865 -2.85671 8.94086 0.7965 Q5.58563 5.62487 3.86365 12.97611 Q2.14166 20.32735 3.85303 34.18832 Q4.7029 41.07171 6.47252 46.68346 Q8.24215 52.2952 9.86475 56.46266 Q14.58039 68.57423 20.00366 70.65614 Q25.42692 72.73804 28.5733 68.19315 C33.57201 64.45219 37.33279 56.67736 43.56946 56.97028 C48.4418 57.19912 50.78719 69.6157 55.2839 71.50561 C71.88034 78.2487 83.13693 51.23353 82.72172 33.26811 C82.49219 28.41797 82.62564 15.98895 71.00017 3.32021 Q63.94975 -2.68124 67.71581 5.06567 Q71.48186 12.81258 72.57487 17.6677 zM55.81337 21.04391 C55.81804 21.03195 55.82737 21.00804 55.83204 20.99609 C55.82737 21.00804 55.81804 21.03195 55.81337 21.04391 z" />
<glyph unicode="N" horiz-adv-x="56.79003" d="M19.31737 42.87409 Q12.48144 52.4444 11.70019 51.02839 Q10.91894 49.61237 10.72362 44.24128 Q9.55175 39.0655 12.62792 37.69831 Q15.70409 36.33112 11.11425 31.93659 Q8.95353 28.59729 8.94713 20.71981 Q8.94073 12.84232 11.11425 10.9405 Q12.67675 10.54987 8.17318 3.76411 Q3.66962 -3.02164 3.48925 2.66979 Q3.10644 14.74909 3.00879 24.31941 Q2.91114 33.88972 3.88769 49.90534 Q4.82959 65.35262 7.57925 69.71254 Q10.32892 74.07246 16.48534 66.40925 C17.7674 64.81373 19.30692 62.41886 20.9661 59.57183 C27.07887 49.08276 34.81588 32.45624 37.28612 27.05378 C40.54323 20.25004 44.80566 15.72565 46.9904 31.81332 C47.50152 37.57496 47.05175 48.4405 42.26659 59.08503 C38.89339 65.32587 44.21972 68.65534 47.24706 70.80378 C51.8369 74.02643 53.59472 66.99518 53.79003 46.68268 C53.79003 35.45222 52.81347 24.90534 47.24706 4.6905 Q43.63378 -4.09857 41.06979 5.95587 Q38.5058 16.0103 19.31737 42.87409 z" />
<glyph unicode="O" horiz-adv-x="67.7204" d="M36.05944 71.56705 C61.59891 70.76598 64.99313 52.7915 64.7204 37.9221 C64.39688 20.28431 55.49782 -2.24585 31.09342 0.61512 C4.27697 3.93384 3.53537 20.80214 3 36.43439 C2.43246 55.4312 9.10109 73.39806 36.05944 71.56705 zM40.03872 7.27693 C48.13207 10.27858 51.96467 15.89355 56.04063 26.15993 C60.99797 40.85084 56.91902 47.84078 40.58736 48.24219 C32.03262 48.03109 24.86404 41.54799 23.49534 31.55042 C21.05341 13.03627 31.86686 4.95405 40.03872 7.27693 z" />
<glyph unicode="P" horiz-adv-x="51.83987" d="M22.75159 61.97681 Q17.0004 61.96362 15.51813 56.53652 Q14.03586 51.10943 13.63011 48.60113 Q9.70575 35.81555 17.18323 37.19246 Q24.66072 38.56937 18.35262 32.41726 Q11.40887 25.70797 10.8234 17.78187 Q10.23792 9.85577 13.0913 7.54063 Q14.78832 7.14723 8.4507 2.03177 Q2.11307 -3.08368 3.1298 2.57307 Q4.61469 10.83452 5.51623 30.20957 Q6.41777 49.58463 5.67533 61.68176 Q5.03515 72.11274 20.93472 72.49663 Q36.8343 72.88053 45.63759 63.83228 C55.60759 50.55496 40.22834 32.26176 32.27357 28.62278 Q27.28858 26.75412 20.44748 27.73764 Q13.60637 28.72115 26.97039 34.52381 Q35.87974 38.55619 36.52641 49.43772 Q37.17308 60.31925 22.75159 61.97681 z" />
<glyph unicode="Q" horiz-adv-x="71.60555" d="M55.55724 -47.75391 C55.55724 -47.75391 55.55724 -47.75391 55.55724 -47.75391 M40.5 33.69602 C40.51114 33.69487 40.53343 33.69256 40.54457 33.69141 C40.53343 33.69256 40.51114 33.69487 40.5 33.69602 zM57.9735 0.66481 Q58.18781 7.62279 55.71815 11.54958 Q53.24849 15.47637 51.1293 15.22081 Q49.40344 15.01268 53.92714 20.71909 Q58.45084 26.4255 57.44308 23.90324 Q57.23324 19.03341 59.80326 17.98147 Q62.37328 16.92952 67.99341 18.6335 Q70.29931 19.80032 64.03412 6.9117 Q57.76893 -5.97693 57.9735 0.66481 zM35.31217 71.97266 C60.27436 71.16001 63.59185 52.92566 63.32529 37.8413 C63.00908 19.9485 54.31117 -2.90738 30.4584 -0.00505 C4.24811 3.36165 3.52326 20.47382 3 36.33208 C2.44529 55.60353 8.96319 73.83014 35.31217 71.97266 zM39.23888 6.78233 C47.14928 9.82738 50.89526 15.52352 54.87908 25.93833 C59.72437 40.84163 55.73762 47.93263 39.77511 48.33984 C31.41375 48.1257 24.4072 41.54886 23.06944 31.40675 C20.6827 12.62494 31.25173 4.42587 39.23888 6.78233 z" />
<glyph unicode="R" horiz-adv-x="50.60617" d="M24.75323 62.71355 Q18.5776 62.7007 16.71396 56.36051 Q14.85031 50.02031 14.41462 47.57457 Q10.20064 35.10787 18.22997 36.45044 Q26.2593 37.79301 19.48566 31.79434 Q12.02945 25.25237 11.40077 17.52395 Q10.77209 9.79553 13.83604 7.53813 Q15.6583 7.15454 8.85296 2.16668 Q2.04763 -2.82119 3.13939 2.69446 Q4.73387 10.74987 5.70193 29.64171 Q6.66999 48.53355 5.87277 60.32896 Q5.18535 70.49979 19.46798 72.45642 Q33.75062 74.41306 42.29246 68.08382 C51.63155 60.02842 48.3287 45.26017 35.11732 34.71143 Q29.42276 29.91655 37.57801 26.7881 Q45.73326 23.65965 45.5345 17.49808 Q43.87313 4.07804 40.09668 1.19601 Q36.32023 -1.68602 36.51899 12.02846 Q36.91651 22.46339 27.30424 25.85433 Q17.69197 29.24527 30.56167 36.82118 Q38.76184 43.15042 39.50042 52.12388 Q40.23901 61.09734 24.75323 62.71355 z" />
<glyph unicode="S" horiz-adv-x="49.79968" d="M24.06752 71.67969 Q29.9041 72.11743 35.30754 71.40242 Q40.71098 70.6874 43.89174 67.28516 Q46.37504 63.85147 46.74472 60.83199 Q47.1144 57.8125 45.16127 54.29688 Q44.08705 52.34375 41.69447 51.85547 Q39.3019 51.36719 37.25112 53.71094 Q34.71205 57.51953 38.13002 61.13281 Q41.54799 64.74609 28.26674 64.35547 Q21.33315 63.86719 18.7527 60.64293 Q16.17225 57.41866 16.25502 54.6875 Q16.45034 48.24219 21.83282 44.75559 Q27.2153 41.26899 30.51284 39.94141 Q38.03237 36.91406 41.88979 32.27539 Q45.74721 27.63672 45.45424 20.21484 Q45.0653 10.36165 40.0995 5.132 Q35.13369 -0.09766 27.58315 -0.09766 Q16.54799 -0.09766 10.98158 2.19727 Q5.41518 4.49219 3.46205 10.44922 Q2.41374 13.59417 3.71914 17.39279 Q5.02455 21.19141 10.29799 22.16797 Q15.47377 23.73047 19.23354 20.60547 Q22.9933 17.48047 20.64955 12.98828 Q18.3058 9.66797 14.59486 12.98828 Q10.88393 16.30859 12.15346 12.01172 Q13.52065 7.71484 24.60464 8.05664 Q35.68862 8.39844 36.66518 20.80078 Q36.95815 27.05078 34.71206 31.05469 Q32.46596 35.05859 25.04408 37.01172 Q11.95815 39.35547 8.24721 44.18946 Q4.53627 49.02344 5.02455 54.58984 Q5.63992 61.605 9.83016 66.26558 Q14.0204 70.92615 24.06752 71.67969 zM42.0558 20.50781 C42.0558 20.50781 42.0558 20.50781 42.0558 20.50781 " />
<glyph unicode="T" horiz-adv-x="59.41797" d="M13.74219 64.17482 Q9.83594 64.17482 6.47368 61.56691 Q3.11142 58.95899 3 67.61911 Q2.91406 74.29857 7.88898 73.19742 Q12.8639 72.09628 30.2461 71.94908 Q41.86719 71.85067 49.33789 72.73635 Q56.8086 73.62202 56.41797 66.44817 Q56.30674 58.57551 53.17383 60.94678 Q50.04093 63.31806 46.55469 63.78119 Q42.55079 64.31309 39.9629 63.8696 Q37.37501 63.4261 36.30079 60.84199 Q33.52979 54.17614 27.68873 58.75155 Q21.84766 63.32697 13.74219 64.17482 zM27.63672 25.39062 Q27.44141 39.84375 26.95313 50.24414 Q26.46484 60.64453 21.02312 66.22843 Q15.46242 71.93441 27.8416 68.7163 Q40.22077 65.49818 38.16908 64.30112 Q34.42775 60.59023 34.88966 45.57832 Q35.35156 30.56641 36.32812 15.82031 Q36.65834 12.28234 39.27644 9.41265 Q41.89453 6.54297 33.20312 1.07422 Q27.53906 -1.36719 27.63491 8.53208 Q27.73076 18.43136 27.63672 25.39062 z" />
<glyph unicode="U" horiz-adv-x="60.86486" d="M16.65364 37.89062 Q27.59114 31.64062 25.54008 21.98725 Q23.48901 12.33388 34.71948 20.42512 Q42.53198 26.89811 46.09729 33.17633 Q49.66261 39.45456 50.14917 50.79839 Q49.07495 60.38339 47.62692 67.69022 Q46.17889 74.99706 52.39583 69.23828 Q57.66983 64.35295 57.86486 47.11788 Q58.05988 29.88281 49.36848 13.37891 Q45.18162 5.42858 34.97036 1.59125 Q24.75911 -2.24609 15.38411 2.83203 C-0.14324 14.74609 -1.47474 55.29502 13.46983 71.05439 Q19.05889 74.40063 13.81999 58.45208 Q8.58108 42.50352 16.65364 37.89062 z" />
<glyph unicode="V" horiz-adv-x="58.5011" d="M15.47721 37.94277 Q17.12041 37.0038 18.47061 35.98788 Q19.82082 34.97196 20.87735 33.87964 Q26.85536 27.70001 25.42758 20.65082 Q23.99979 13.60162 33.54305 20.47727 Q41.35555 26.95026 44.92087 33.22848 Q48.48618 39.50671 48.97274 50.85054 Q47.89852 60.43554 46.45049 67.74237 Q45.00246 75.04921 51.2194 69.29043 Q56.4934 64.4051 55.27255 44.99552 Q54.0517 25.58594 44.4814 12.10938 Q38.74124 4.02629 34.48242 1.18306 Q30.22359 -1.66016 23.77828 5.76172 C10.1064 24.02344 -8.54594 44.23828 12.2934 71.10654 Q17.88246 74.45278 12.64355 58.50423 Q7.40465 42.55567 15.47721 37.94277 z" />
<glyph unicode="W" horiz-adv-x="86.30013" d="M13.9419 56.37393 Q11.79346 48.56143 12.96534 41.77432 Q14.13722 34.98721 18.2199 25.91007 Q24.16269 12.69729 28.55999 17.32536 Q32.95729 21.95342 34.93799 30.20206 Q35.32211 31.80173 32.58474 38.6199 Q29.84738 45.43807 40.30909 38.79581 Q43.33643 36.25674 44.55714 36.25674 Q45.77784 36.25674 48.51221 38.01456 Q69.60596 54.61612 61.54932 43.288 Q53.49267 31.95987 55.32927 27.76553 Q57.87989 21.94054 59.6611 22.82552 Q61.44231 23.7105 66.26677 30.59757 Q68.13964 33.27115 70.72827 39.74442 Q73.3169 46.21768 74.68409 54.51846 Q75.10242 57.86511 75.08857 65.95741 Q75.07471 74.04971 78.29737 70.24112 Q81.42237 65.26065 82.79757 57.83671 Q84.17276 50.41278 81.81299 36.64737 Q80.64112 29.81143 78.61016 24.28888 Q76.5792 18.76634 74.76287 14.6796 Q69.4842 2.8026 63.96924 0.97742 Q58.45427 -0.84775 55.52458 3.83975 C50.70688 7.81111 47.31501 15.75382 41.07146 15.75382 C36.19375 15.75382 33.26841 3.46095 28.68799 1.78409 C11.79346 -4.17294 1.81671 23.34059 3.07432 41.26675 C2.61377 47.19424 3.98096 58.52237 16.18799 70.63174 Q23.51221 76.29581 19.38685 68.73412 Q15.26149 61.17243 13.9419 56.37393 z" />
<glyph unicode="X" horiz-adv-x="57.44453" d="M19.68053 66.61336 Q24.53384 47.4311 37.02486 31.28589 Q49.51589 15.14068 53.67434 15.42401 Q55.91793 16.48784 51.75726 6.70327 Q47.5966 -3.0813 45.16607 2.75677 Q41.61638 11.28304 30.77854 27.73315 Q19.9407 44.18327 8.77953 55.29063 Q-1.87436 65.89316 7.69015 70.11856 Q17.25465 74.34396 19.68053 66.61336 zM8.3489 15.93304 Q19.27997 27.39798 29.67188 44.15953 Q40.0638 60.92108 43.34416 69.52953 Q45.59027 75.42386 50.21213 65.86055 Q54.834 56.29725 52.50719 57.26837 Q48.26077 57.39055 36.17316 40.86861 Q24.08555 24.34668 19.89605 5.0996 Q17.72901 -2.67514 7.82182 1.15702 Q-2.08536 4.98918 8.3489 15.93304 z" />
<glyph unicode="Y" horiz-adv-x="69.0926" d="M38.35093 14.16752 Q39.01563 11.82358 39.3776 11.15047 Q39.73957 10.47735 41.1625 9.72213 Q42.50224 9.01106 34.27988 2.38153 Q26.05751 -4.248 25.88218 6.95611 Q25.96581 23.68809 26.79766 37.20576 Q27.6295 50.72342 21.48145 55.06513 Q7.91252 64.64741 4.24525 64.10409 Q0.57797 63.56077 7.52317 70.8315 Q11.86268 73.8039 14.64678 70.6232 Q17.43087 67.44249 22.96793 63.41667 Q26.4133 60.91165 28.4924 59.70924 Q30.5715 58.50683 34.72971 55.50082 Q49.46162 66.82349 54.03565 70.2303 Q58.60967 73.63711 61.69862 70.9317 Q68.58937 63.11607 64.71646 63.73357 Q60.84356 64.35106 45.31875 54.17605 Q38.95688 50.00646 36.6369 39.19962 Q34.31692 28.39278 38.35093 14.16752 z" />
<glyph unicode="Z" horiz-adv-x="60.87447" d="M64.45566 79.6875 C64.45566 79.6875 64.45566 79.6875 64.45566 79.6875 M20.9358 18.68374 Q17.10051 14.33226 18.47391 11.97575 Q19.84731 9.61923 23.97817 9.83189 Q29.51661 9.35725 31.19892 13.01391 Q32.88124 16.67057 36.49066 13.25814 Q39.2151 10.3386 44.09196 11.82225 Q48.96881 13.30589 49.27937 14.0476 Q49.51379 16.3085 54.91088 10.51495 Q60.30797 4.72141 55.94694 3.94443 Q46.69124 2.2954 39.34941 1.28177 Q32.00759 0.26814 19.67357 0.19531 Q7.77724 0.12506 4.31558 3.64252 Q0.85391 7.15998 6.47825 16.6278 C11.81844 24.29264 18.69624 32.18058 21.07455 34.62558 C2.00108 54.78747 25.48121 37.86299 31.10308 43.43724 C36.18909 48.69752 44.54625 62.64172 32.10635 64.28291 C29.8363 64.72874 24.2328 64.75701 18.37177 64.35207 C12.64426 63.83247 11.54057 56.57658 14.56723 57.62027 C19.05306 58.94088 17.75751 53.55378 13.26826 51.84027 C8.9021 50.28989 4.3404 53.85505 4.91172 60.09558 C5.48751 66.4738 11.66453 70.81905 20.0581 71.55716 C28.74045 72.08446 35.29861 72.39747 50.99888 71.0273 Q59.70265 71.40439 49.84676 56.47326 Q39.99087 41.54214 34.43432 35.01254 Q48.5982 22.46992 39.3231 25.74613 Q30.04799 29.02235 20.9358 18.68374 z" />
<glyph unicode="[" horiz-adv-x="38.4094" d="M13.76419 9.77455 Q13.14072 -9.47558 18.0362 -14.94858 Q22.93168 -20.42158 11.65603 -20.11336 Q2.04265 -19.85058 3.67096 -16.23613 Q5.29928 -12.62167 5.24554 -2.74734 Q5.18433 8.47611 5.07817 16.47258 Q4.97202 24.46905 4.98366 31.96131 Q5.04206 69.55043 3.2323 74.43462 Q1.42254 79.31881 12.57806 78.48247 Q22.80536 78.42709 18.86142 73.51818 Q14.91749 68.60927 14.63537 60.58544 Q13.76419 9.77455 14.03746 31.36248 Q14.31073 52.95042 14.30876 52.91863 M20.74366 -19.98728 Q18.57065 -20.10914 15.66548 -19.97289 Q12.76031 -19.83665 10.1702 -20.54111 Q7.91497 -21.15449 6.08581 -20.71583 Q4.25666 -20.27718 3.62033 -18.10436 Q3.05994 -10.5932 7.97268 -11.2489 Q12.88542 -11.90461 20.46464 -11.37612 Q31.80118 -10.58564 35.12874 -6.88379 Q38.4563 -3.18194 38.4094 -14.76431 Q38.38815 -20.0119 34.91889 -19.69941 Q31.44963 -19.38691 20.74366 -19.98728 zM36.78707 73.97358 Q37.27002 62.56308 34.07743 66.02381 Q30.88483 69.48454 20.45707 69.62628 Q13.48545 69.72104 9.00445 68.79878 Q4.52345 67.87652 4.75214 75.30942 Q5.25324 77.48627 6.91425 78.02134 Q8.57525 78.5564 10.66704 78.07873 Q13.06942 77.53013 15.72882 77.82768 Q18.38821 78.12524 20.38591 78.1273 Q30.22808 78.13746 33.39817 78.64038 Q36.56826 79.14331 36.78707 73.97358 z" />
<glyph unicode="\" horiz-adv-x="46.86064" d="M26.87095 -10.99471 Q24.3035 9.16095 16.72396 34.12982 Q9.14442 59.0987 3.84379 70.26694 Q0.21437 77.914 11.78431 73.96952 Q23.35424 70.02505 20.91017 69.11439 Q17.89625 65.81775 24.50689 38.19121 Q31.11752 10.56466 41.53964 -14.43536 Q47.4297 -24.3355 38.37571 -27.2849 Q29.32171 -30.23429 26.87095 -10.99471 z" />
<glyph unicode="]" horiz-adv-x="38.43235" d="M24.12359 52.23504 Q24.12162 52.26683 24.39489 30.6789 Q24.66816 9.09096 23.79698 59.90185 Q23.51486 67.92568 19.57092 72.83459 Q15.62699 77.7435 25.85429 77.79888 Q37.00981 78.63522 35.20005 73.75103 Q33.39029 68.86684 33.44869 31.27772 Q33.46033 23.78546 33.35418 15.78899 Q33.24802 7.79252 33.18681 -3.43093 Q33.13307 -13.30526 34.76138 -16.91972 Q36.3897 -20.53418 26.77632 -20.79695 Q15.50067 -21.10516 20.39615 -15.63216 Q25.29163 -10.15917 24.66816 9.09096 M0 -15.4479 Q-0.04692 -3.86553 3.28065 -7.56738 Q6.60822 -11.26923 17.94476 -12.05971 Q25.52398 -12.5882 30.43672 -11.9325 Q35.34946 -11.27679 34.78907 -18.78795 Q34.15274 -20.96077 32.32359 -21.39942 Q30.49443 -21.83808 28.2392 -21.2247 Q25.64909 -20.52024 22.74392 -20.65648 Q19.83875 -20.79273 17.66574 -20.67087 Q6.95977 -20.0705 3.49051 -20.38299 Q0.02125 -20.69549 -0 -15.4479 zM18.00663 77.44371 Q20.00433 77.44165 22.66372 77.14409 Q25.32312 76.84653 27.7255 77.39514 Q29.81729 77.87282 31.47829 77.33775 Q33.1393 76.80268 33.6404 74.62583 Q33.86909 67.19293 29.38809 68.11519 Q24.90709 69.03745 17.93547 68.94269 Q7.50771 68.80096 4.31511 65.34023 Q1.12252 61.87949 1.60547 73.28999 Q1.82428 78.45972 4.99437 77.95679 Q8.16446 77.45387 18.00663 77.44371 z" />
<glyph unicode="^" horiz-adv-x="33.59375" d="M18.55061 68.31053 Q14.26433 62.25376 11.19824 53.56858 Q8.13215 44.8834 7.73519 40.48529 Q7.46339 37.47385 3.17117 42.10881 Q-1.12105 46.74376 0.37843 46.32949 Q2.83097 46.39743 6.90926 55.01444 Q10.98755 63.63145 10.07437 73.36942 Q9.97732 77.31743 16.3097 75.70471 Q22.64207 74.092 18.55061 68.31053 zM11.52551 71.22902 Q11.90141 69.99942 15.33557 73.42733 Q18.76974 76.85524 21.65157 71.14175 Q24.91965 64.29761 26.60874 59.85253 Q28.29783 55.40744 30.06515 50.34985 Q31.81915 46.34574 33.27563 42.90929 Q34.73211 39.47283 29.57677 39.69456 Q25.43675 40.01721 25.9168 42.7559 Q26.39686 45.49458 22.08831 55.4997 Q19.77632 60.43187 17.20907 63.01103 Q14.64182 65.59018 13.10349 65.5753 " />
<glyph unicode="_" horiz-adv-x="70.51482" d="M8.52264 8.58218 Q24.94999 2.2134 42.83585 3.78774 Q60.72171 5.36209 62.52185 8.94588 Q62.82422 11.37203 67.99885 2.64871 Q73.17348 -6.07461 67.71345 -4.92284 Q59.73927 -3.24072 42.42789 -3.28638 Q25.1165 -3.33203 11.57161 -6.53345 Q-1.35765 -9.58936 0.15884 0.58589 Q1.67533 10.76115 8.52264 8.58218 z" />
<glyph unicode="`" horiz-adv-x="22.04072" d="M6.10237 73.60878 Q8.48474 68.92815 11.26752 65.64427 Q14.05029 62.36039 16.16408 61.51323 Q18.14822 60.63048 15.69064 57.98585 Q13.23305 55.34121 12.52673 56.96804 Q11.56822 59.17572 8.6609 63.04118 Q5.75358 66.90663 2.56105 69.73569 Q-0.37138 72.33426 2.18169 74.12529 Q4.73477 75.91632 6.10237 73.60878 z" />
<glyph unicode="a" horiz-adv-x="53.3805" d="M15.39907 19.24539 Q19.52988 11.80101 26.94749 15.79108 Q34.3651 19.78115 36.39813 32.40926 Q37.67892 39.30025 37.96936 46.13554 Q38.25979 52.97082 41.84179 53.34223 Q54.03994 54.27077 48.81217 48.82893 Q43.58439 43.38709 39.98175 20.31394 Q38.86385 13.15434 38.62717 11.61828 Q38.39049 10.08222 40.85761 12.16846 Q47.32314 20.86114 47.53136 20.0582 Q47.73958 19.25527 43.571 9.86716 Q41.7316 5.13163 37.56874 3.73882 Q33.40587 2.34601 33.30906 5.87446 Q33.20337 8.453 32.74351 11.09933 Q32.28366 13.74567 30.29904 12.72427 Q27.87878 10.77435 23.95794 5.99239 Q20.0371 1.21042 12.1075 4.94592 Q0.23252 12.07184 3.81452 31.81097 Q7.39652 51.55011 25.98418 53.7786 Q30.96114 54.65069 34.06687 52.90819 Q37.17261 51.1657 36.97898 45.50162 Q35.23639 33.05923 33.83263 40.06968 Q32.42888 47.08013 25.72859 44.8851 Q23.52229 44.38738 20.90396 42.79819 Q18.28563 41.209 16.45511 38.90901 Q13.95742 35.47343 13.47337 29.53079 Q12.98931 23.58815 15.39907 19.24539 z" />
<glyph unicode="b" horiz-adv-x="46.67419" d="M31.51128 33.02325 Q29.66477 35.11956 27.02357 36.56803 Q24.38237 38.0165 22.15681 38.47015 Q18.01516 39.7703 15.30568 34.14231 Q12.59621 28.51432 12.27834 39.00862 Q12.08302 44.17113 15.63502 44.46735 Q19.18703 44.76356 22.5269 44.53312 Q41.2769 42.50197 44.09916 24.91309 Q46.92141 7.32422 35.89685 2.0676 Q27.898 -1.33713 23.94292 3.02139 Q19.98784 7.37991 17.54644 9.15717 Q15.54449 10.08813 15.08062 7.67613 Q14.61675 5.26413 14.51013 2.91392 Q14.41248 -0.30208 10.21326 0.9674 Q6.01404 2.23687 4.15857 6.55306 Q-0.04641 15.10985 0 16.05102 Q0.04641 16.99219 5.80813 9.47266 Q8.15188 6.64062 8.04234 8.60973 Q7.9328 10.57885 7.77917 16.07477 Q6.39407 65.625 3.17141 69.77539 Q-0.05125 73.92578 8.73782 74.21875 Q15.08547 74.21875 13.23 59.99894 Q11.37453 45.77913 11.39409 27.09904 Q11.96047 15.98886 20.18506 12.15226 Q28.40965 8.31567 32.57654 15.10085 Q35.00734 19.05906 34.51906 24.47547 Q34.03078 29.89188 31.51128 33.02325 z" />
<glyph unicode="c" horiz-adv-x="37.30278" d="M8.20122 9.60675 Q10.34966 6.09462 14.30474 5.99428 Q18.25981 5.89393 22.16606 8.30225 Q24.11919 9.70709 26.95122 12.26592 Q29.78325 14.82476 33.49419 19.94242 Q36.52153 24.05663 35.56941 19.59767 Q34.61729 15.1387 33.31764 10.65589 Q30.90911 3.866 20.4829 1.11698 Q10.05669 -1.63205 4.58794 4.79012 Q-3.22456 14.82476 2.26033 33.97741 Q7.74522 53.13006 26.60326 51.86165 Q31.70664 51.82386 34.97093 50.46029 Q38.23522 49.09671 36.93185 42.92768 Q32.76332 29.639 32.74784 37.60253 Q32.73237 45.56605 25.66151 44.49797 Q23.37736 44.39294 20.86837 43.86726 Q18.35937 43.34157 15.72266 42.03707 Q12.40234 40.33118 10.9375 34.96265 Q9.47266 29.59411 10.74219 26.78442 Q12.20703 23.37264 9.28506 17.99212 Q6.36309 12.61159 8.20122 9.60675 z" />
<glyph unicode="d" horiz-adv-x="44.17418" d="M11.59764 14.61257 Q15.76453 7.82739 23.98912 11.66399 Q32.21371 15.50058 32.78009 26.61076 Q32.79965 45.29085 30.94418 59.51066 Q29.08871 73.73047 35.43636 73.73047 Q44.22543 73.4375 41.00277 69.28711 Q37.78011 65.13672 36.39501 15.58649 Q36.24138 10.09057 36.13184 8.12146 Q36.0223 6.15234 38.36605 8.98438 Q44.12777 16.50391 44.17418 15.56274 Q44.22059 14.62157 40.01561 6.06478 Q38.16014 1.74859 33.96092 0.47911 Q29.7617 -0.79036 29.66405 2.42564 Q29.55743 4.77585 29.09356 7.18785 Q28.62969 9.59985 26.62774 8.66889 Q24.18634 6.89163 20.23126 2.53311 Q16.27618 -1.82541 8.27733 1.57932 Q-1.96598 7.12891 0.46565 24.5713 Q2.89728 42.01369 21.64728 44.04484 Q24.98715 44.27528 28.53916 43.97906 Q32.09116 43.68285 31.89584 38.52034 Q31.57797 28.02604 28.8685 33.65403 Q26.15902 39.28202 22.01737 37.98187 Q19.79181 37.52822 17.15061 36.07975 Q14.50941 34.63128 12.6629 32.53497 Q10.1434 29.4036 9.65512 23.98719 Q9.16684 18.57078 11.59764 14.61257 z" />
<glyph unicode="e" horiz-adv-x="43.29776" d="M11.22856 9.7044 Q13.15895 6.06104 17.22305 6.02632 Q21.28715 5.99159 25.1934 8.3999 Q27.14653 9.80474 29.97856 12.36358 Q32.81059 14.92241 36.52153 20.04008 Q39.54887 24.15429 38.59675 19.69533 Q37.64463 15.23636 36.34498 10.75355 Q33.93645 3.96365 23.51024 1.21463 Q13.08403 -1.53439 7.61528 4.88778 Q-0.19722 14.92241 5.28767 34.07506 Q10.77256 53.22771 29.6306 51.95931 Q37.08269 50.81751 39.4885 45.17161 Q41.89432 39.52571 37.49978 35.11047 Q33.69119 31.29731 31.55599 29.21371 Q29.42078 27.13011 25.1951 23.77133 Q13.86697 16.64674 24.81334 31.15522 Q35.75971 45.6637 28.68885 44.59563 Q26.4047 44.49059 23.49803 43.27159 Q20.59137 42.05259 18.32595 39.8973 Q16.70889 38.44149 14.55887 35.22061 Q12.40886 31.99973 14.36199 28.889 Q15.72918 26.38033 12.34344 20.18536 Q8.95769 13.99038 11.22856 9.7044 z" />
<glyph unicode="f" horiz-adv-x="40.19216" d="M28.89405 66.52884 Q23.61587 65.85943 22.3534 62.90142 Q21.09092 59.94341 21.09092 57.57159 Q21.23138 55.00893 21.27761 52.90756 Q21.32385 50.80619 24.4684 50.90384 Q29.94223 50.90384 31.80566 52.71048 Q33.66909 54.51712 34.01849 48.95072 Q33.78556 41.91947 31.68919 43.57963 Q29.59283 45.23978 26.79769 44.94681 Q23.88607 44.45853 22.95435 43.04251 Q22.02264 41.6265 21.44032 33.28422 Q20.39214 7.05619 23.88608 3.73588 Q27.38001 0.41556 16.37316 0.29978 Q8.0469 0.12259 10.55088 2.80814 Q13.05487 5.49369 12.82194 9.69291 Q12.65585 12.68717 13.20476 28.57285 Q13.75366 44.45853 9.79387 44.65384 Q6.4164 44.84916 4.14534 42.74955 Q1.87428 40.64994 1.75782 46.60697 Q1.87428 54.02884 4.20357 52.31986 Q6.53286 50.61087 8.86215 50.80619 Q12.47255 50.90384 12.06492 53.73587 Q11.65729 56.56791 11.77376 60.66947 Q11.91767 65.7374 16.45547 68.64749 Q20.99327 71.55758 26.83114 72.04898 Q32.73738 72.19291 36.34778 70.0933 Q39.95818 67.99369 40.1911 65.35697 Q40.24865 63.54871 39.26082 62.29517 Q38.27298 61.04164 34.9502 59.88822 Q24.81779 57.64212 29.7093 59.49759 Q34.60081 61.35306 34.36788 63.30619 Q34.36788 64.57572 33.1846 65.70585 Q32.00132 66.83599 28.89405 66.52884 z" />
<glyph unicode="g" horiz-adv-x="50.11352" d="M13.43532 25.19531 Q16.01428 18.55541 24.19648 21.24059 Q32.37868 23.92578 32.79049 32.42188 Q32.79049 37.89063 33.47999 43.95026 Q34.16948 50.00989 37.80655 50.30184 Q50.19228 51.03174 46.21832 46.75631 Q42.24435 42.48087 42.57103 24.12109 Q42.98284 0.97656 40.01219 -11.12 Q37.04155 -23.21656 23.21586 -24.02344 Q15.08256 -23.82813 10.94757 -19.81952 Q6.81259 -15.81092 6.64042 -10.54687 Q6.53746 -7.12891 9.3172 -4.58985 Q12.09693 -2.05078 15.08256 -1.85547 Q18.68592 -1.66016 20.38464 -3.27148 Q22.08337 -4.88281 22.08337 -7.71484 Q22.28928 -11.71875 19.09774 -12.35352 Q15.90619 -12.98828 14.67075 -9.76562 Q13.74418 -13.18359 16.67834 -15.08789 Q19.6125 -16.99219 25.89263 -15.42969 Q30.62847 -14.16016 31.60653 -6.20117 Q32.58458 1.75781 32.99639 8.39844 Q33.40821 12.20703 32.53311 16.35742 Q31.65801 20.50781 27.5601 17.39416 Q25.10261 15.86138 20.29849 11.44632 Q15.49438 7.03125 8.69948 13.67188 Q1.08095 22.94922 3.6033 34.32618 Q6.12565 45.70313 20.70028 49.00283 Q25.99559 50 29.39304 48.97461 Q32.79049 47.94922 31.86415 42.49652 Q30.09475 32.71589 29.27829 38.2231 Q28.46183 43.7303 23.62767 42.48047 Q19.09773 41.50391 15.18551 36.13281 Q11.2733 30.76172 13.43532 25.19531 z" />
<glyph unicode="h" horiz-adv-x="43.33203" d="M3.94547 8.18853 Q8.63952 25.25415 7.36345 43.72091 Q6.08738 62.18768 3.38774 64.00037 Q1.56499 64.28041 8.08579 69.74611 Q14.6066 75.2118 13.77082 69.55256 Q12.5502 61.28745 12.67574 43.39401 Q12.80128 25.50057 15.27581 11.54271 Q17.63787 -1.78076 9.99191 -0.3496 Q2.34594 1.08157 3.94547 8.18853 zM9.46014 44.16649 Q10.04098 42.41906 14.26164 44.64703 Q18.48231 46.875 23.21205 46.875 Q32.33961 46.08866 36.03213 39.66688 Q39.72464 33.24509 39.30975 15.24661 Q39.30975 6.16 40.22251 3.36412 Q41.13526 0.56824 34.74597 0.30612 Q29.60135 0.30612 32.09068 3.36412 Q34.58001 6.42211 34.58001 14.3729 Q34.16512 25.03219 26.24074 32.45874 Q18.31636 39.8853 13.75258 36.30308 Q11.13087 34.24524 10.50295 30.73086 Q9.87502 27.21647 9.99241 18.54448 " />
<glyph unicode="i" horiz-adv-x="21.25232" d="M3.61384 9.15253 Q6.48626 19.11652 6.34742 31.82915 Q6.20858 44.54178 4.54084 50.38831 Q3.39891 54.39152 11.66775 50.63928 Q19.93658 46.88704 17.65514 46.65173 Q14.29929 45.31024 13.00463 32.1674 Q11.70997 19.02456 17.87979 6.99616 Q20.00358 1.97985 10.43778 0.81063 Q0.87198 -0.35859 3.61384 9.15253 zM15.81096 58.51718 Q15.40652 57.55994 14.67191 56.81247 Q13.95837 56.083 12.9672 55.67342 Q12.01362 55.28947 10.95636 55.27344 Q9.92849 55.26386 8.94552 55.67342 Q7.99208 56.05785 7.24081 56.81247 Q6.50736 57.53251 6.10176 58.51718 Q5.69918 59.46329 5.70178 60.52802 Q5.69261 61.55549 6.10176 62.53886 Q6.48579 63.49321 7.24081 64.24357 Q7.9609 64.97534 8.94552 65.38262 Q9.89261 65.78778 10.95636 65.7826 Q11.98107 65.78862 12.9672 65.38262 Q13.92703 65.00133 14.67191 64.24357 Q15.39707 63.52139 15.81096 62.53886 Q16.22305 61.59136 16.21094 60.52802 Q16.21589 59.47557 15.81096 58.51718 z" />
<glyph unicode="j" horiz-adv-x="21.74209" d="M10.53836 -4.54802 Q10.83133 18.11672 10.05008 33.18988 Q9.26883 48.26303 4.97195 54.75439 Q3.66278 56.82414 11.34862 57.54963 Q19.03445 58.27513 18.35086 52.00382 Q16.84814 38.21779 16.68369 25.59049 Q16.51924 12.96318 18.59185 -6.29687 Q19.49022 -14.64513 15.16077 -17.46322 Q10.83133 -20.28131 1.94461 -15.22025 Q-0.20383 -13.56991 -2.0877 -12.01212 Q-3.97157 -10.45433 -1.96917 -6.23293 Q1.91827 0.21874 6.2138 -6.45109 Q10.50932 -13.12092 10.53836 -4.54802 zM16.5954 63.78035 Q16.16654 62.76533 15.38759 61.97273 Q14.63097 61.19923 13.57997 60.76492 Q12.56882 60.3578 11.44774 60.34079 Q10.35782 60.33063 9.3155 60.76492 Q8.30451 61.17256 7.50788 61.97273 Q6.73016 62.73624 6.30007 63.78035 Q5.87319 64.78357 5.87594 65.91258 Q5.86622 67.00208 6.30007 68.04482 Q6.70729 69.05678 7.50788 69.85244 Q8.27144 70.62838 9.3155 71.06025 Q10.31977 71.48986 11.44774 71.48438 Q12.53431 71.49076 13.57997 71.06025 Q14.59774 70.65594 15.38759 69.85244 Q16.15652 69.08666 16.5954 68.04482 Q17.03236 67.04011 17.01953 65.91258 Q17.02478 64.7966 16.5954 63.78035 z" />
<glyph unicode="k" horiz-adv-x="41.70028" d="M11.61814 17.79501 Q11.61964 17.77262 11.41139 32.97823 Q11.20313 48.18383 11.86703 12.39484 Q12.08204 6.7432 15.08761 3.28558 Q18.09319 -0.17204 10.29921 -0.21105 Q1.79786 -0.80013 3.17703 2.64008 Q4.5562 6.08029 4.5117 32.55644 Q4.50283 37.83366 4.58373 43.46603 Q4.66462 49.09839 4.71128 57.00371 Q4.75222 63.95876 3.51132 66.50463 Q2.27043 69.05049 9.59655 69.23558 Q18.18946 69.45267 14.45873 65.59773 Q10.72801 61.74279 11.20313 48.18383 M30.42987 1.57392 Q27.60985 10.8689 20.20019 16.94443 Q12.79053 23.01996 10.29791 22.00313 Q8.94891 20.96519 11.48625 27.08624 Q14.02359 33.20728 15.45306 30.57662 Q17.54074 26.73464 23.95858 20.1516 Q30.37643 13.56856 37.01237 9.92268 Q43.3467 6.44251 37.59731 2.1841 Q31.84792 -2.07432 30.42987 1.57392 zM36.8176 42.81518 Q29.73407 40.46277 22.41129 35.35174 Q15.0885 30.24071 12.44384 27.00056 Q10.633 24.78198 9.08499 30.85411 Q7.53698 36.92625 8.70224 35.75402 Q10.99449 34.42391 19.21348 38.91021 Q27.43247 43.39651 31.63877 51.58168 Q33.59551 54.74602 38.58735 49.90336 Q43.5792 45.06069 36.8176 42.81518 z" />
<glyph unicode="l" horiz-adv-x="24.53353" d="M17.64908 1.26689 Q11.13995 -0.72329 6.60339 2.98828 Q2.06683 6.69985 3.2841 15.28906 Q6.00832 34.51147 5.79584 45.84954 Q5.58337 57.18761 3.2841 67.76701 Q2.82065 69.89944 5.25156 70.81545 Q7.68248 71.73145 11.19383 71.47867 Q14.3767 71.48438 13.88842 66.01563 Q13.40014 60.54688 11.805 24.402 Q11.85308 18.70802 11.79653 13.55323 Q11.73998 8.39844 15.45092 8.10547 Q13.40014 9.96094 13.25365 12.10938 Q13.10717 14.25781 17.23487 13.52672 Q20.52904 13.37891 21.42516 8.1583 Q22.32128 2.93769 17.64908 1.26689 z" />
<glyph unicode="m" horiz-adv-x="60.99553" d="M4.10797 6.77888 Q8.57717 20.38627 7.18149 35.08381 Q5.78581 49.78135 3.12453 51.2131 Q1.33507 51.42831 7.6862 55.80778 Q14.03732 60.18725 13.26208 55.67788 Q12.12987 49.09212 12.39293 34.84615 Q12.656 20.60018 15.19154 9.49766 Q17.61184 -1.10024 10.1035 0.00669 Q2.59517 1.11361 4.10797 6.77888 zM5.752 47.65413 Q6.35116 45.75166 10.70495 48.1773 Q15.05875 50.60294 19.93767 50.60294 Q29.35314 49.74684 33.16212 42.75529 Q36.9711 35.76374 36.54312 16.16839 Q36.54312 6.27559 37.48466 3.23165 Q38.42621 0.18771 31.83539 -0.09766 Q26.5285 -0.09766 29.09635 3.23165 Q31.6642 6.56096 31.6642 15.21716 Q31.23622 26.82217 23.06192 34.9076 Q14.88762 42.99303 10.17983 39.09305 M23.22295 48.12541 Q23.87741 46.22294 28.63304 48.64858 Q33.38867 51.07422 38.71789 51.07422 Q49.00236 50.21812 53.16289 43.22657 Q57.32342 36.23502 56.85595 16.63967 Q56.85595 6.74687 57.88439 3.70293 Q58.91284 0.65899 51.71372 0.37362 Q45.91702 0.37362 48.72188 3.70293 Q51.52673 7.03224 51.52673 15.68844 Q51.05925 27.29345 42.13047 35.37891 Q33.20168 43.46437 28.05945 39.56433 " />
<glyph unicode="n" horiz-adv-x="47.78883" d="M3.04014 6.8765 Q8.13066 19.24884 6.74681 32.63698 Q5.36296 46.02512 2.4353 47.3393 Q0.4586 47.54232 7.53018 51.50487 Q14.60175 55.46742 13.69537 51.36456 Q12.37163 45.37247 12.50778 32.39998 Q12.64392 19.42749 15.32747 9.30824 Q17.88905 -0.35109 9.59728 0.68649 Q1.30551 1.72406 3.04014 6.8765 zM11.42578 47.8579 Q12.05568 45.96288 16.63284 48.37903 Q21.20999 50.79518 26.33921 50.79518 Q36.23771 49.94242 40.24211 42.97823 Q44.2465 36.01405 43.79657 16.49537 Q43.79657 6.64128 44.78642 3.60926 Q45.77626 0.57723 38.84732 0.29297 Q33.26817 0.29297 35.96776 3.60925 Q38.66734 6.92553 38.66734 15.54787 Q38.21741 27.10747 29.62371 35.1613 Q21.03001 43.21513 16.08077 39.33033 Q13.23763 37.09867 12.55666 33.28746 Q11.8757 29.47624 12.00301 20.07179 " />
<glyph unicode="o" horiz-adv-x="50.81295" d="M27.00326 50.41764 C45.54655 49.85603 48.01097 37.25453 47.81295 26.82994 C47.57805 14.46448 41.11676 -1.3309 23.39761 0.67486 C3.92717 3.00154 3.38871 14.82752 3 25.78694 C2.58793 39.10517 7.42979 51.70132 27.00326 50.41764 zM30.01235 5.44547 C35.88864 7.54987 38.67136 11.48639 41.63076 18.68392 C45.2301 28.98338 42.26852 33.88387 30.4107 34.16529 C24.19942 34.01729 18.99457 29.47213 18.00081 22.46307 C16.22781 9.48322 24.07906 3.81696 30.01235 5.44547 z" />
<glyph unicode="p" horiz-adv-x="36.1749" d="M28.76444 34.9744 Q24.7839 39.9566 16.51876 39.43607 Q8.25362 38.91554 8.82018 30.14525 Q10.51123 15.46284 10.08272 -2.31851 Q9.6542 -20.09985 6.82445 -20.61201 Q-2.84003 -22.11522 1.18087 -17.50475 Q5.20177 -12.89428 4.95107 38.56324 Q4.95002 38.77876 5.28496 46.30041 Q5.61991 53.82205 8.64725 50.50174 Q10.30741 48.84158 15.43427 51.18106 Q20.56114 53.52053 26.51834 50.20877 Q36.70118 43.70689 36.1749 24.43146 Q35.64863 5.15603 20.98956 2.28264 Q16.45975 1.67362 13.96131 2.16296 Q11.46287 2.65231 11.14588 6.72294 Q10.58108 16.45379 12.84029 12.20245 Q15.09949 7.9511 18.64967 8.51795 Q21.07025 8.89585 24.70111 11.16323 Q28.33198 13.43061 30.18775 17.39853 Q31.55942 20.42171 31.33187 26.2337 Q31.10433 32.04569 28.76444 34.9744 z" />
<glyph unicode="q" horiz-adv-x="37.00039" d="M6.23805 16.42197 Q8.09382 12.45405 11.72468 10.18667 Q15.35555 7.91929 17.77613 7.54139 Q21.32631 6.97454 23.58552 11.22589 Q25.84472 15.47723 25.27992 5.74638 Q24.96293 1.67575 22.46449 1.1864 Q19.96605 0.69706 15.43624 1.30608 Q0.77717 4.17947 0.25089 23.4549 Q-0.27538 42.73033 9.90746 49.23221 Q15.86466 52.54397 20.99152 50.2045 Q26.11839 47.86502 27.77855 49.52518 Q30.80589 52.84549 31.14084 45.32384 Q31.47578 37.8022 31.47473 37.58668 Q31.22403 -13.87084 35.24493 -18.48131 Q39.26583 -23.09178 29.60135 -21.58857 Q26.7716 -21.07641 26.34309 -3.29507 Q25.91457 14.48628 27.60562 29.16869 Q28.17218 37.93898 19.90704 38.45951 Q11.64189 38.98005 7.66136 33.99784 Q5.32147 31.06913 5.09392 25.25714 Q4.86638 19.44515 6.23805 16.42197 z" />
<glyph unicode="r" horiz-adv-x="43.23535" d="M18.75 44.53125 Q15.66452 42.23117 14.27757 36.78942 Q12.89062 31.34766 13.02877 21.65484 Q12.5 5.76172 15.36886 3.12955 Q18.23772 0.49738 8.63898 0.29297 Q0.92586 0.29297 3.57979 3.178 Q6.23372 6.06303 5.80034 40.66613 Q5.77943 42.33567 5.60903 44.59354 Q5.43864 46.85141 3.80859 48.73047 Q0.97656 51.5625 6.05468 52.44141 Q11.13281 53.32031 12.40234 50.29297 Q13.08593 48.33984 18.99537 50.53711 Q24.9048 52.73438 29.39453 52.73438 Q42.07176 52.36242 43.10619 45.85895 Q44.14062 39.35547 37.40234 35.83984 Q32.61718 32.8125 35.2539 36.23047 Q37.89062 39.64844 37.89062 43.35938 Q37.59765 48.33984 30.85937 48.4375 Q24.12109 48.53516 18.75 44.53125 z" />
<glyph unicode="s" horiz-adv-x="40.64301" d="M22.44385 0.87891 Q13.71567 0.87891 9.31297 2.46688 Q4.91027 4.05484 3.36545 8.17679 Q2.5363 10.35292 3.5688 12.98136 Q4.6013 15.60981 8.77229 16.28554 Q12.86603 17.3667 15.83978 15.20437 Q18.81354 13.04204 16.95977 9.93368 Q15.106 7.6362 12.17087 9.93368 Q9.23573 12.23116 10.23986 9.25795 Q11.32122 6.28474 20.08802 6.52125 Q28.85481 6.75776 29.62721 15.33951 Q29.85893 19.66418 28.0824 22.43467 Q26.30587 25.20516 20.43559 26.55662 Q10.08538 28.17837 7.15024 31.52323 Q4.2151 34.86809 4.6013 38.71975 Q5.08802 43.57386 8.40226 46.79873 Q11.7165 50.0236 19.66319 50.54501 Q24.27959 50.84791 28.5534 50.35316 Q32.8272 49.8584 35.343 47.50423 Q37.30715 45.1283 37.59955 43.03897 Q37.89194 40.94965 36.34712 38.51703 Q35.49748 37.16557 33.60509 36.8277 Q31.7127 36.48984 30.09065 38.11159 Q28.0824 40.74694 30.78582 43.24714 Q33.48923 45.74733 22.98453 45.47704 Q17.50046 45.13918 15.45947 42.90816 Q13.41849 40.67714 13.48395 38.78732 Q13.63844 34.32751 17.89567 31.91497 Q22.1529 29.50242 24.76106 28.58381 Q30.70858 26.48905 33.75958 23.27933 Q36.81057 20.06962 36.57885 14.93408 Q36.27122 8.11619 32.34356 4.49755 Q28.41589 0.87891 22.44385 0.87891 z" />
<glyph unicode="t" horiz-adv-x="47.29038" d="M39.95072 47.25855 Q29.30619 48.52809 20.56596 47.5027 Q11.82572 46.47731 7.97301 43.80603 Q4.20853 41.39918 2.54838 48.67458 Q0.88822 55.94997 4.44857 55.29887 Q9.28011 54.4153 19.14667 54.98732 Q29.01322 55.55934 37.4532 57.81371 Q45.20554 59.88441 45.3125 53.425 Q45.41947 46.96559 39.95072 47.25855 zM31.38647 1.12058 Q24.87734 -0.8696 20.34078 2.84197 Q15.80422 6.55354 17.02149 15.14275 Q19.74571 34.36516 19.53323 45.70323 Q19.32076 57.0413 17.02149 67.6207 Q16.55804 69.75313 18.98896 70.66913 Q21.41987 71.58514 24.93122 71.33236 Q28.11409 71.33807 27.62581 65.86932 Q27.13753 60.40057 25.54239 24.25569 Q25.59047 18.56171 25.53392 13.40692 Q25.47737 8.25213 29.18831 7.95916 Q27.13753 9.81463 26.99104 11.96307 Q26.84456 14.1115 30.97226 13.38041 Q34.26643 13.2326 35.16255 8.01199 Q36.05867 2.79138 31.38647 1.12058 z" />
<glyph unicode="u" horiz-adv-x="47.74028" d="M30.09204 8.61589 Q33.03738 18.28382 33.17219 30.67454 Q33.307 43.06526 31.84125 48.78728 Q30.83763 52.70523 38.63503 48.92726 Q46.43242 45.14928 44.25435 44.95346 Q41.02968 43.6954 39.5204 30.90648 Q38.01113 18.11755 43.63531 6.30512 Q45.55288 1.38547 36.41673 0.38643 Q27.28057 -0.61261 30.09204 8.61589 zM40.625 6.33958 Q39.93365 8.09342 34.65133 5.92075 Q29.36901 3.74808 23.49283 3.80859 Q12.16646 4.71124 7.69019 11.17655 Q3.21392 17.64185 4.04123 35.62457 Q4.19867 44.7059 3.11311 47.51183 Q2.02755 50.31776 9.97008 50.49799 Q16.36172 50.43217 13.21601 47.4078 Q10.0703 44.38343 9.93254 36.43726 Q10.26331 25.77885 17.98365 19.79778 Q25.70398 13.81671 35.42836 14.25335 " />
<glyph unicode="v" horiz-adv-x="46.0422" d="M18.21901 11.68571 Q24.7188 19.81942 29.70051 31.7436 Q34.68221 43.66779 35.57707 49.80394 Q36.18979 54.00545 41.88186 47.14009 Q47.57392 40.27473 45.49344 40.98282 Q42.03371 41.09512 35.63146 29.35224 Q29.22921 17.60937 29.77219 3.87146 Q29.60754 -1.67509 20.81109 1.12331 Q12.01465 3.9217 18.21901 11.68571 zM27.3744 11.03265 Q27.0343 12.62063 22.0676 8.79357 Q17.1009 4.96651 14.02261 12.49718 Q10.57802 21.49348 8.91284 27.27832 Q7.24766 33.06315 5.55694 39.62443 Q3.75017 44.86649 2.26402 49.35886 Q0.77786 53.85124 7.55298 52.88391 Q12.97543 51.92627 11.99454 48.5657 Q11.01365 45.20512 15.43036 32.11661 Q17.85575 25.63929 20.91648 22.07033 Q23.9772 18.50136 26.00914 18.31404 " />
<glyph unicode="w" horiz-adv-x="61.27343" d="M4.3736 -0.01428 Q8.8428 13.59311 7.44712 28.29065 Q6.05144 42.98819 3.39016 44.41994 Q1.6007 44.63515 7.95182 49.01462 Q14.30295 53.39408 13.52771 48.88472 Q12.3955 42.29896 12.65856 28.05299 Q12.92163 13.80702 15.45717 2.7045 Q17.87747 -7.8934 10.36914 -6.78647 Q2.8608 -5.67955 4.3736 -0.01428 zM10.44546 11.98117 Q15.15325 8.08119 23.32755 16.16662 Q31.50185 24.25205 31.92983 35.85706 Q31.92983 44.51326 29.36198 47.84257 Q26.79413 51.17188 32.10102 51.17188 Q38.69184 50.88651 37.75029 47.84257 Q36.80875 44.79863 36.80875 34.90583 Q37.23673 15.31047 33.42775 8.31892 Q29.61877 1.32737 20.2033 0.47128 Q15.32438 0.47128 10.97059 2.89691 Q6.61679 5.32255 6.01763 3.42008 M28.32508 11.49288 Q33.46731 7.59284 42.39609 15.6783 Q51.32488 23.76376 51.79236 35.36877 Q51.79236 44.02497 48.9875 47.35428 Q46.18265 50.68359 51.97935 50.68359 Q59.17847 50.39822 58.15003 47.35428 Q57.12158 44.31034 57.12158 34.41754 Q57.58905 14.82219 53.42852 7.83064 Q49.26799 0.83909 38.98352 -0.01701 Q33.6543 -0.01701 28.89867 2.40863 Q24.14304 4.83427 23.48858 2.9318 " />
<glyph unicode="x" horiz-adv-x="43.70692" d="M18.48912 40.43277 Q17.17064 43.6299 15.03007 43.70019 Q12.8895 43.77048 10.77279 41.45173 Q9.71745 40.10393 8.19505 37.65969 Q6.67266 35.21545 4.70433 30.35576 Q3.09767 26.4483 3.55539 30.64887 Q4.0131 34.84943 4.66199 39.07751 Q5.88735 45.48806 11.59241 48.22281 Q17.29748 50.95756 20.40815 45.00837 Q24.8649 35.70199 22.1299 17.63867 Q19.3949 -0.42466 8.98223 0.48828 Q6.16893 0.44854 4.34931 1.68069 Q2.5297 2.91284 3.15529 8.72416 Q5.25295 21.26239 5.38123 13.78564 Q5.5095 6.3089 9.39055 7.41594 Q10.64787 7.54823 13.12276 12.65899 Q15.59766 17.76975 17.7461 26.51096 Q18.625 29.62565 19.21094 33.44365 Q19.79688 37.26165 18.48912 40.43277 zM40.70692 18.40075 C40.7037 18.38926 40.69725 18.36627 40.69403 18.35478 M24.81558 11.87199 Q26.13406 8.67487 28.27463 8.60458 Q30.4152 8.53429 32.53191 10.85303 Q33.58725 12.20083 35.10965 14.64507 Q36.63204 17.08931 38.60037 21.94901 Q40.20703 25.85647 39.74931 21.6559 Q39.2916 17.45533 38.64271 13.22726 Q37.41735 6.8167 31.71228 4.08195 Q26.00722 1.3472 22.89655 7.29639 Q18.4398 16.60278 21.1748 34.6661 Q23.9098 52.72942 34.32247 51.81648 Q37.13577 51.85622 38.95539 50.62408 Q40.775 49.39193 40.14941 43.5806 Q38.05175 31.04238 37.92347 38.51913 Q37.7952 45.99587 33.91415 44.88882 Q32.65683 44.75653 30.18193 39.64577 Q27.70704 34.53501 25.5586 25.7938 Q24.6797 22.67911 24.09376 18.86111 Q23.50782 15.04311 24.81558 11.87199 z" />
<glyph unicode="y" horiz-adv-x="44.3515" d="M27.47278 -11.92734 Q30.26869 2.67254 30.41055 21.38903 Q30.5524 40.10552 29.17323 48.75079 Q28.22889 54.67034 35.59658 48.95324 Q42.96427 43.23614 40.90479 42.94322 Q37.85454 41.04715 36.41274 21.73097 Q34.97095 2.41479 40.27463 -15.4358 Q42.08189 -22.86966 33.44291 -24.36665 Q24.80394 -25.86365 27.47278 -11.92734 zM34.09168 11.24227 Q33.5067 12.82499 29.25599 10.80703 Q25.00528 8.78906 20.24186 8.78906 Q11.04932 9.50128 7.33052 15.31776 Q3.61172 21.13423 4.02956 37.43619 Q4.02956 45.6663 3.11031 48.19864 Q2.19106 50.73099 8.62583 50.9684 Q13.80708 50.9684 11.30003 48.19865 Q8.79297 45.4289 8.79297 38.22754 Q9.21082 28.57299 17.19161 21.84645 Q25.17241 15.11991 29.76868 18.36448 Q32.40905 20.22835 33.04144 23.41147 Q33.67384 26.5946 33.55562 34.44917 " />
<glyph unicode="z" horiz-adv-x="46.93747" d="M16.30295 12.89062 Q13.47092 9.76562 14.51047 8.10317 Q15.55002 6.44072 18.62935 6.62759 Q29.29744 6.62759 33.16982 7.73396 Q37.04221 8.84033 37.47109 9.84202 Q37.63124 11.45045 41.69389 7.38078 Q45.75653 3.31112 42.50921 2.7213 Q35.6172 1.46949 30.1484 0.68571 Q24.6796 -0.09806 15.48162 -0.25662 Q6.61004 -0.40955 4.00557 2.05968 Q1.4011 4.52891 5.53416 11.30465 C9.46701 16.79688 14.54513 22.46094 16.30295 24.21875 C1.94748 38.37891 19.56833 26.55714 23.72482 30.56641 C27.48372 34.34796 33.6258 44.3279 24.33773 45.38627 C22.64188 45.68338 18.46272 45.65494 14.09432 45.31647 C9.82623 44.89769 9.05022 39.73271 11.30067 40.50048 C14.63753 41.47764 13.70631 37.6388 10.36944 36.38245 C7.12331 35.24307 3.69815 37.73667 4.08372 42.17561 C4.47173 46.71242 9.05022 49.85328 15.30518 50.4504 C21.77687 50.90024 26.66578 51.17943 38.38361 50.34186 Q44.87225 50.68516 37.61885 39.99102 Q30.36545 29.29688 26.26388 24.60938 Q36.90842 15.82031 29.96998 18.06779 Q23.03153 20.31527 16.30295 12.89062 z" />
<glyph unicode="{" horiz-adv-x="39.30676" d="M14.74564 23.06832 Q5.58242 24.73063 13.69672 27.5408 Q21.81101 30.35096 13.89852 51.03191 Q8.68287 64.6641 13.17507 69.65562 Q17.66727 74.64713 23.58895 76.45726 Q38.78918 79.79626 26.4385 73.50011 Q14.08783 67.20397 21.17498 50.51754 Q27.60766 35.37204 23.8676 28.73201 Q20.12754 22.09199 14.74564 23.06832 zM15.29904 2.99056 Q18.33668 14.0625 16.23707 17.33398 Q14.13746 20.60547 11.32408 21.72458 Q8.4734 22.85156 4.22535 23.4375 Q-0.0227 24.02344 10.43456 26.61626 Q15.22741 28.37086 21.32433 22.94337 Q27.42124 17.51589 22.1901 4.07144 Q14.33031 -16.12884 31.75391 -20.35038 Q49.1775 -24.57192 26.68847 -23.3684 Q17.01206 -22.85056 14.07939 -17.49747 Q11.14671 -12.14437 15.29904 2.99056 z" />
<glyph unicode="|" horiz-adv-x="12.95439" d="M7.60138 -30.86292 Q-2.22425 -33.14345 0.63704 -22.29564 Q3.49832 -11.44783 3.21404 23.32777 Q3.02398 46.57745 2.05359 61.46344 Q1.08319 76.34942 7.50489 76.02356 Q14.54452 76.30087 12.4999 69.8842 Q10.45529 63.46752 10.12473 56.46526 Q9.74509 48.42326 10.10549 39.57401 Q10.46589 30.72475 10.54556 24.06434 Q10.93806 -8.74993 11.49555 -19.28981 Q12.05305 -29.8297 7.60138 -30.86292 z" />
<glyph unicode="}" horiz-adv-x="36.16477" d="M13.25431 50.33649 Q19.23443 67.4509 6.49825 72.92541 Q-6.23794 78.39991 9.14819 76.06267 Q15.17563 74.64389 19.98481 69.95701 Q24.79399 65.27013 20.48152 51.32588 Q13.93921 30.17151 22.21999 27.89831 Q30.50078 25.6251 21.46596 23.36679 Q16.15948 22.0404 11.99296 28.42147 Q7.82644 34.80254 13.25431 50.33649 zM12.62455 -23.63049 Q-9.73754 -26.30296 7.37249 -20.95038 Q24.48252 -15.59781 15.3178 4.04489 Q9.21815 17.11824 14.94687 22.93303 Q20.67558 28.74782 25.57296 27.31059 Q36.17747 25.40758 31.97687 24.54494 Q27.77626 23.68229 25.00543 22.37119 Q22.2713 21.07039 20.39026 17.66854 Q18.50921 14.26668 22.26481 3.41723 Q27.39857 -11.41357 24.82245 -16.94709 Q22.24633 -22.4806 12.62455 -23.63049 z" />
<glyph unicode="~" horiz-adv-x="48.97334" d="M2.01733 35.61323 Q1.6756 48.05646 6.36683 40.04774 Q11.05807 32.03901 25.17271 36.49214 Q35.96923 39.89841 41.35799 38.09762 Q46.74675 36.29683 46.97266 29.55855 Q46.6338 19.01167 43.17815 25.53307 Q39.7225 32.05446 25.92769 27.93745 Q13.82073 24.32417 8.01102 26.6191 Q2.20131 28.91402 2.01733 35.61323 zM25.97392 36.32812 C25.97392 36.32812 25.97392 36.32812 25.97392 36.32812 " />
<glyph unicode="" horiz-adv-x="59.80859" d="M49.11026 39.7673 Q47.75172 52.62851 42.13646 46.05064 Q36.5212 39.47276 30.31431 41.60336 Q26.41104 42.94321 24.33183 47.53037 Q22.25262 52.11754 23.06267 55.75031 Q23.90398 59.52328 27.99597 62.39158 Q32.08797 65.25988 37.31436 65.02019 Q48.59828 63.82258 46.34877 60.13237 Q44.09926 56.44216 46.83029 53.22445 Q49.00723 50.62216 51.72783 50.96814 Q54.44844 51.31413 55.76722 53.28908 Q57.32837 55.12805 56.55434 58.99489 Q55.78032 62.86174 52.76995 66.21965 Q49.38045 70.01135 44.95422 71.91968 Q40.528 73.828 33.48598 73.73047 Q25.23455 73.61619 19.17674 69.29424 Q13.11892 64.9723 12.47643 56.90467 Q11.77531 48.10086 15.95766 41.81704 Q20.14001 35.53322 25.7625 33.90112 Q39.94697 30.20702 44.80032 32.82726 Q49.65367 35.4475 49.11026 39.7673 zM12.56677 52.00782 Q12.72921 47.6358 13.78474 42.7376 Q14.84027 37.8394 14.84027 31.30846 Q14.84027 27.2735 14.42724 22.37587 Q14.0142 17.47824 12.72921 13.8286 Q10.89351 9.12249 6.94676 9.50666 Q3 9.89083 3 5.47285 Q3 0.57465 5.4782 0.2865 Q7.95639 -0.00165 33.474 -0.09766 Q39.78355 -0.1214 44.9513 1.45382 Q50.11906 3.02905 53.20778 5.95306 Q55.95153 8.54306 56.16294 12.87654 Q56.37436 17.21002 54.76381 18.43156 Q53.3812 19.76535 50.72435 19.84629 Q48.06749 19.92724 46.09248 17.92963 Q43.61232 15.45718 45.98756 12.9518 Q48.3628 10.44641 37.48129 8.89634 Q31.32031 8.39844 28.4041 11.9578 Q25.48789 15.51716 24.77734 18.35938 Q23.89844 21.875 26.20665 26.63975 Q28.51486 31.40451 36.0426 30.92429 Q42.64142 30.50333 45.53901 33.01459 Q48.43659 35.52584 49.00642 37.80351 Q48.78205 40.7452 44.39639 39.06372 Q40.01073 37.38224 36.50291 37.1671 Q33.41796 36.97798 25.47056 43.24434 Q17.52316 49.5107 12.56677 52.00782 z" />
<glyph unicode="" horiz-adv-x="56.01474" d="M12.37344 51.66865 Q21.28221 50.01863 33.2886 50.70986 Q45.29499 51.40109 51.08663 52.89817 Q55.05225 53.92324 50.86785 47.36439 Q46.68345 40.80554 46.84558 42.47193 Q46.1458 44.87698 33.25308 45.21628 Q20.36036 45.55558 7.71415 43.10184 Q2.31739 41.03401 3.09349 47.13884 Q3.86959 53.24367 12.37344 51.66865 zM43.4373 33.31416 Q45.63399 37.31876 45.91693 41.26767 Q46.19987 45.21658 45.83486 49.90082 Q45.32312 53.20968 48.76483 51.35889 Q52.20655 49.50809 51.75489 47.69514 Q50.75863 43.69618 50.66016 39.50789 Q50.56168 35.3196 50.39889 29.22326 Q50.2523 23.73365 46.224 27.79541 Q42.19571 31.85717 43.4373 33.31416 z" />
<glyph unicode="" horiz-adv-x="20.41379" d="M9.83538 75.29297 C16.59337 75.0883 17.49151 70.49576 17.41935 66.69659 C17.33373 62.19007 14.97896 56.43353 8.52133 57.16453 C1.42544 58.01248 1.22921 62.32237 1.08755 66.31646 C0.93738 71.17021 2.70196 75.7608 9.83538 75.29297 zM11.02666 58.96683 C13.16823 59.73377 14.18238 61.16841 15.26091 63.7915 C16.57267 67.54508 15.49334 69.33103 11.17183 69.43359 C8.90817 69.37966 7.01129 67.7232 6.64913 65.16878 C6.00296 60.43837 8.86431 58.37333 11.02666 58.96683 z" />
<glyph unicode="" horiz-adv-x="56.55172" d="M5.94257 27.63777 Q8.52363 39.31975 8.89958 51.69633 Q9.27552 64.0729 7.40113 65.13691 Q6.07002 65.25585 11.48668 68.17668 Q16.90334 71.09751 15.89102 67.47627 Q14.41256 62.18759 13.26282 50.82739 Q12.11309 39.46719 12.97716 30.68244 Q13.80196 22.29694 8.91636 22.5586 Q4.03076 22.82025 5.94257 27.63777 zM4.59002 69.03034 Q7.3881 68.64979 9.30958 68.3722 Q11.23107 68.09462 13.12275 68.91889 Q13.98036 69.29258 14.60907 64.96205 Q15.23778 60.63153 13.75703 61.56261 Q11.63806 62.44673 9.81437 62.47894 Q7.99068 62.51115 6.02052 60.2381 Q5.27574 58.87699 3.67308 64.125 Q2.07041 69.37302 4.59002 69.03034 zM8.88254 9.40606 Q16.71448 27.18999 22.24698 47.09018 Q27.77947 66.99037 26.01972 69.55715 Q24.50811 70.34758 32.06007 72.65211 Q39.61203 74.95664 36.93543 69.53915 Q33.02636 61.62712 27.00483 43.7224 Q20.98331 25.81767 18.38225 11.18503 Q15.89941 -2.78256 10.27932 -0.16499 Q4.65923 2.45258 8.88254 9.40606 zM43.76297 51.72817 Q37.32856 40.5027 32.81881 27.94302 Q28.30907 15.38334 29.78658 13.76457 Q31.04889 13.26654 24.77266 11.8087 Q18.49642 10.35086 20.6986 13.77059 Q23.91479 18.76497 28.84135 30.06576 Q33.76792 41.36655 35.86259 50.60099 Q37.86206 59.41572 42.55373 57.76679 Q47.24541 56.11785 43.76297 51.72817 zM48.15396 12.12219 Q43.07853 14.15456 36.24687 13.88403 Q29.41521 13.6135 26.12313 12.28162 Q23.86901 11.36967 26.23149 17.98691 Q28.59397 24.60415 28.50657 22.88966 Q28.91187 20.38075 36.25103 19.55458 Q43.59019 18.72842 50.78087 20.79502 Q53.84652 22.73076 53.42261 16.45648 Q52.9987 10.18219 48.15396 12.12219 zM40.65005 8.83192 Q42.0049 14.79974 42.03994 22.43856 Q42.07498 30.07738 41.37697 33.6009 Q40.89903 36.0135 44.55213 33.70533 Q48.20523 31.39716 47.18762 31.27062 Q45.68321 30.48647 45.00663 22.5985 Q44.33006 14.71053 46.98552 7.44359 Q47.89291 4.4159 43.62485 3.77562 Q39.35678 3.13535 40.65005 8.83192 z" />
<glyph unicode="" horiz-adv-x="52.55172" d="M5.97709 26.33664 Q8.48845 38.17053 8.85424 50.70806 Q9.22003 63.24558 7.39626 64.32343 Q6.1011 64.44391 11.3715 67.40271 Q16.64189 70.36152 15.65691 66.69321 Q14.21837 61.33575 13.09968 49.82782 Q11.98099 38.31989 12.82173 29.42089 Q13.62426 20.92635 8.87057 21.1914 Q4.11689 21.45646 5.97709 26.33664 zM4.50566 68.27233 Q7.22819 67.88683 9.09779 67.60563 Q10.96739 67.32444 12.80799 68.15943 Q13.64244 68.53798 14.25417 64.15114 Q14.86591 59.7643 13.42514 60.70749 Q11.36339 61.6031 9.58895 61.63573 Q7.8145 61.66836 5.89753 59.36575 Q5.17286 57.98695 3.61347 63.30321 Q2.05408 68.61947 4.50566 68.27233 zM8.63917 7.93569 Q16.25963 25.95088 21.64274 46.10986 Q27.02585 66.26884 25.31361 68.869 Q23.84282 69.66971 31.19086 72.00421 Q38.5389 74.3387 35.93458 68.85076 Q32.13107 60.83584 26.27214 42.69828 Q20.41322 24.56072 17.88238 9.73779 Q15.46657 -4.41144 9.99823 -1.75983 Q4.5299 0.89178 8.63917 7.93569 zM36.78788 16.49579 Q36.72241 19.50902 37.8653 22.22151 Q39.0082 24.934 42.85122 25.98787 Q45.53761 26.82483 47.57753 30.26754 Q49.61745 33.71025 49.45987 39.03291 Q49.32782 43.49324 47.0532 46.75559 Q44.77858 50.01794 39.92885 50.18343 Q36.59954 50.29704 34.47523 49.32674 Q32.35092 48.35644 30.6802 46.16036 Q29.19653 44.21577 28.76024 41.90639 Q28.32394 39.597 29.028 38.44852 Q29.61508 37.22443 30.89424 36.94521 Q32.17339 36.66599 33.24947 38.17707 Q34.5986 40.04447 33.60307 42.32612 Q32.60754 44.60776 37.96099 45.03567 Q40.4348 45.04408 42.31591 43.20966 Q44.19702 41.37523 44.52566 39.08037 Q44.84209 36.87079 43.8003 33.99735 Q42.75851 31.12391 40.84109 30.74641 Q36.35644 29.86347 33.46566 27.02063 Q30.57487 24.17779 30.06824 19.16453 Q29.93564 14.51352 33.36788 14.12381 Q36.80013 13.73411 36.78788 16.49579 zM45.02931 7.0176 Q40.39692 7.7311 35.99941 7.52666 Q31.6019 7.32222 28.90387 6.77703 Q27.17223 6.42712 27.68941 11.41005 Q28.20659 16.39299 29.29831 14.51026 Q30.52491 12.21718 35.23693 12.2976 Q39.94895 12.37803 44.59609 15.57599 Q46.87569 17.41069 48.06193 11.88924 Q49.24816 6.36779 45.02931 7.0176 z" />
<glyph unicode="" horiz-adv-x="60.82759" d="M18.1305 10.49266 Q25.08471 27.49309 29.99718 46.51655 Q34.90965 65.54 33.34712 67.99369 Q32.00491 68.74931 38.71053 70.9523 Q45.41614 73.1553 43.03951 67.97649 Q39.56853 60.41304 34.22184 43.29713 Q28.87515 26.18122 26.56558 12.19326 Q24.36098 -1.15896 19.37074 1.34328 Q14.3805 3.84552 18.1305 10.49266 zM49.12527 51.02826 Q43.41196 40.29736 39.40763 28.29102 Q35.40329 16.28467 36.7152 14.73722 Q37.83606 14.26114 32.2632 12.86752 Q26.69034 11.4739 28.64572 14.74297 Q31.50147 19.51731 35.87591 30.32023 Q40.25035 41.12314 42.11028 49.95075 Q43.88567 58.37713 48.05155 56.80084 Q52.21743 55.22456 49.12527 51.02826 zM52.98544 13.12303 Q48.47882 15.06586 42.41278 14.80725 Q36.34673 14.54864 33.42361 13.27544 Q31.4221 12.40366 33.51982 18.72937 Q35.61754 25.05507 35.53993 23.41611 Q35.89981 21.01774 42.41646 20.22798 Q48.93312 19.43821 55.31795 21.41376 Q58.04003 23.26422 57.66363 17.26636 Q57.28723 11.2685 52.98544 13.12303 zM46.38059 9.90978 Q47.58361 15.61466 47.61474 22.91695 Q47.64586 30.21923 47.02605 33.58752 Q46.60166 35.89382 49.84536 33.68734 Q53.08906 31.48086 52.18549 31.35991 Q50.84968 30.6103 50.24894 23.06984 Q49.64819 15.52939 52.00605 8.58261 Q52.81174 5.6883 49.022 5.07623 Q45.23226 4.46417 46.38059 9.90978 zM6.78303 46.69955 Q7.44139 39.21987 10.16258 43.04536 Q12.88377 46.87085 15.89166 45.63175 Q17.7832 44.85253 18.79079 42.18477 Q19.79839 39.51702 19.40584 37.40432 Q18.99814 35.21008 17.01513 33.54196 Q15.03213 31.87384 12.49939 32.01324 Q7.03113 32.70972 8.12126 34.85584 Q9.21139 37.00196 7.88791 38.87327 Q6.83296 40.38669 5.51454 40.18548 Q4.19612 39.98427 3.55703 38.8357 Q2.80049 37.76621 3.17559 35.51737 Q3.55068 33.26853 5.00952 31.31567 Q6.65209 29.11052 8.79712 28.06266 Q10.94216 27.01479 14.35465 26.9476 Q19.32553 26.84972 21.75577 29.87314 Q24.18602 32.89655 24.45958 37.18821 Q24.78603 42.3096 22.80411 45.73578 Q20.82219 49.16196 18.09749 50.11114 Q11.22362 52.25951 8.87165 50.73566 Q6.51969 49.21182 6.78303 46.69955 zM13.44505 48.0784 Q13.16891 49.25583 14.12218 50.14292 Q15.07544 51.03001 18.807 52.19093 Q21.40822 53.07144 23.18084 55.67159 Q24.95345 58.27174 24.41313 61.91627 Q23.96035 64.97033 21.72338 66.96466 Q19.4864 68.95899 14.6574 69.12469 Q11.60088 69.22957 9.20165 68.23591 Q6.80242 67.24225 5.3056 65.54175 Q3.97596 64.03548 3.70357 61.97162 Q3.43119 59.90776 4.21168 59.19736 Q4.88169 58.42166 6.16922 58.37459 Q7.45675 58.32751 8.41385 59.48926 Q9.61575 60.92716 8.46469 62.38421 Q7.31364 63.84127 12.58688 64.74275 Q15.03731 65.02904 17.03349 63.98011 Q19.02967 62.93119 19.52094 61.38943 Q19.99396 59.90495 19.16918 57.80967 Q18.3444 55.71439 16.47189 55.23722 Q12.0923 54.12117 9.68509 51.6885 Q7.27788 49.25583 7.00174 47.93121 Q7.11047 46.22041 8.18517 45.41881 Q9.25987 44.6172 10.95977 44.74232 Q12.45476 44.8523 12.99938 46.0211 Q13.544 47.1899 13.44505 48.0784 z" />
<glyph unicode="" horiz-adv-x="59.58621" d="M11.6842 31.62025 Q22.02636 28.97212 35.17117 28.5945 Q48.31597 28.21688 54.34004 29.30869 Q58.46481 30.05627 54.69386 23.67602 Q50.92292 17.29577 50.6494 19.10483 Q49.21771 21.80396 35.60904 23.32907 Q22.00037 24.85418 9.64296 20.44717 Q4.48349 18.96375 3.14779 26.55588 Q1.81209 34.14802 11.6842 31.62025 zM33.40514 46.56581 C35.77097 41.4022 33.20743 39.02666 30.7858 37.67519 C27.9133 36.07211 23.4151 35.71488 21.49192 40.8471 C19.40686 46.50313 22.05136 48.24566 24.51692 49.83023 C27.52126 51.7393 31.06659 52.10945 33.40514 46.56581 zM25.5061 45.65826 C23.94049 45.94617 23.0394 44.82502 23.16131 43.05586 C23.71118 39.50586 24.70818 38.38245 26.95521 38.57284 C29.22872 38.94122 29.20879 39.58052 29.66841 40.8227 C30.16367 42.07678 28.40709 45.10581 25.5061 45.65826 zM34.67467 9.26112 C37.0405 4.09752 34.47696 1.72197 32.05533 0.37051 C29.18283 -1.23258 24.68462 -1.58981 22.76145 3.54242 C20.67638 9.19845 23.32088 10.94097 25.78645 12.52554 C28.79079 14.43462 32.33611 14.80477 34.67467 9.26112 zM26.58032 8.45123 C25.01471 8.73914 24.11362 7.618 24.23553 5.84884 C24.7854 2.29883 25.78239 1.17543 28.02943 1.36581 C30.30294 1.73419 30.283 2.37349 30.74263 3.61566 C31.23789 4.86975 29.4813 7.89879 26.58032 8.45123 z" />
<glyph unicode="" horiz-adv-x="56" d="" />
<glyph unicode="" horiz-adv-x="56" d="" />
<glyph unicode="" horiz-adv-x="17.10345" d="M12.72978 74.02533 Q14.27 68.9517 14.02076 66.6308 Q13.77152 64.3099 12.93166 62.98526 Q12.23434 61.88543 9.89589 61.0466 Q7.55745 60.20777 5.4884 60.54646 Q3.31618 60.77067 0.81209 62.95255 Q-1.69199 65.13443 3.47454 65.44229 Q6.09643 66.39222 6.56243 68.531 Q7.02843 70.66979 6.03044 75.41866 Q5.60326 77.79427 8.64954 77.61276 Q11.69583 77.43126 12.72978 74.02533 z" />
<glyph unicode="" horiz-adv-x="34.75862" d="M22.03652 62.19191 Q20.4963 67.26554 20.74554 69.58644 Q20.99478 71.90735 21.83464 73.23198 Q22.53196 74.3318 24.87041 75.17064 Q27.20885 76.00947 29.2779 75.67078 Q31.45012 75.44657 33.95421 73.26469 Q36.45829 71.08281 31.29176 70.77495 Q28.66987 69.82502 28.20387 67.68624 Q27.73787 65.54745 28.73586 60.79858 Q29.16304 58.42297 26.11676 58.60447 Q23.07047 58.78598 22.03652 62.19191 zM6.31386 61.9966 Q4.77364 67.07023 5.02288 69.39113 Q5.27212 71.71203 6.11198 73.03667 Q6.8093 74.13649 9.14775 74.97532 Q11.48619 75.81416 13.55524 75.47547 Q15.72746 75.25126 18.23155 73.06938 Q20.73563 70.8875 15.5691 70.57964 Q12.94721 69.62971 12.48121 67.49093 Q12.01521 65.35214 13.0132 60.60327 Q13.44038 58.22766 10.3941 58.40917 Q7.34781 58.59067 6.31386 61.9966 z" />
<glyph unicode="" horiz-adv-x="34.84483" d="M12.70123 71.19329 Q14.24145 66.11966 13.99221 63.79876 Q13.74297 61.47786 12.90311 60.15322 Q12.20579 59.0534 9.86734 58.21456 Q7.5289 57.37573 5.45985 57.71442 Q3.28763 57.93863 0.78354 60.12051 Q-1.72054 62.30239 3.44599 62.61025 Q6.06788 63.56018 6.53388 65.69896 Q6.99988 67.83775 6.00189 72.58662 Q5.57471 74.96223 8.62099 74.78073 Q11.66728 74.59922 12.70123 71.19329 zM28.42388 71.38861 Q29.9641 66.31498 29.71486 63.99408 Q29.46562 61.67318 28.62576 60.34854 Q27.92844 59.24872 25.59 58.40989 Q23.25155 57.57105 21.1825 57.90974 Q19.01028 58.13395 16.5062 60.31583 Q14.00211 62.49771 19.16864 62.80557 Q21.79053 63.7555 22.25653 65.89428 Q22.72253 68.03307 21.72454 72.78194 Q21.29736 75.15755 24.34365 74.97604 Q27.38993 74.79454 28.42388 71.38861 z" />
</font>
</svg>
